<?xml version="1.0" standalone="no"?>
<!DOCTYPE svg PUBLIC "-//W3C//DTD SVG 20010904//EN"
 "http://www.w3.org/TR/2001/REC-SVG-20010904/DTD/svg10.dtd">
<svg version="1.0" xmlns="http://www.w3.org/2000/svg"
 width="333.000000pt" height="333.000000pt" viewBox="0 0 333.000000 333.000000"
 preserveAspectRatio="xMidYMid meet">
<metadata>
Created by potrace 1.11, written by Peter Selinger 2001-2013
</metadata>
<g transform="translate(0.000000,333.000000) scale(0.100000,-0.100000)"
fill="#000000" stroke="none">
<path d="M0 2561 c0 -724 1 -770 18 -774 16 -4 16 -5 0 -6 -16 -1 -18 -16 -18
-170 0 -133 3 -171 14 -180 10 -9 16 -9 21 -1 11 17 46 -25 52 -62 3 -20 1
-28 -6 -23 -6 3 -11 1 -11 -4 0 -6 -4 -11 -10 -11 -5 0 -10 6 -10 13 0 7 -9
18 -20 25 -17 10 -21 10 -26 -2 -10 -27 0 -81 16 -81 10 0 14 -8 12 -23 -3
-23 12 -30 22 -9 3 6 3 2 1 -9 -4 -14 0 -24 11 -28 9 -3 14 -12 11 -20 -3 -7
-1 -18 5 -24 6 -6 7 -15 3 -22 -5 -8 -12 -4 -23 11 -15 21 -16 21 -29 4 -11
-16 -13 -17 -13 -3 0 9 -4 19 -9 22 -5 3 -9 -107 -9 -250 -1 -140 2 -253 6
-250 4 3 9 -5 9 -17 2 -17 0 -19 -7 -7 -6 10 -10 -68 -10 -217 0 -149 4 -233
10 -233 6 0 10 -5 10 -11 0 -5 -4 -7 -10 -4 -6 4 -10 -30 -10 -94 l0 -101 630
0 c461 0 630 3 630 11 0 9 4 9 13 0 10 -8 296 -11 1035 -11 l1022 1 0 1664 0
1665 -279 0 c-259 0 -279 -1 -277 -17 0 -10 -6 -18 -14 -18 -8 0 -14 8 -14 18
2 19 -22 23 -29 5 -4 -10 -6 -10 -6 -1 -1 10 -290 13 -1356 13 l-1355 0 0
-769z m1080 745 c0 -3 -4 -8 -10 -11 -5 -3 -10 -1 -10 4 0 6 5 11 10 11 6 0
10 -2 10 -4z m1440 -14 c0 -10 -7 -19 -15 -19 -8 0 -15 9 -15 19 0 10 7 18 15
18 8 0 15 -8 15 -18z m-1735 -2 c17 -7 17 -9 3 -9 -10 -1 -18 -5 -18 -11 0 -5
-7 -10 -15 -10 -8 0 -15 9 -15 20 0 21 12 24 45 10z m255 -10 c0 -5 -5 -10
-11 -10 -5 0 -7 5 -4 10 3 6 8 10 11 10 2 0 4 -4 4 -10z m1800 0 c0 -5 -7 -10
-15 -10 -8 0 -15 5 -15 10 0 6 7 10 15 10 8 0 15 -4 15 -10z m-2630 -40 c0 -5
-4 -10 -10 -10 -5 0 -10 5 -10 10 0 6 5 10 10 10 6 0 10 -4 10 -10z m2270 0
c0 -5 -4 -10 -10 -10 -5 0 -10 5 -10 10 0 6 5 10 10 10 6 0 10 -4 10 -10z
m-660 -14 c0 -8 -4 -17 -9 -21 -12 -7 -24 12 -16 25 9 15 25 12 25 -4z m1300
-36 c0 -5 -4 -10 -10 -10 -5 0 -10 5 -10 10 0 6 5 10 10 10 6 0 10 -4 10 -10z
m-480 -4 c0 -3 -4 -8 -10 -11 -5 -3 -10 -1 -10 4 0 6 5 11 10 11 6 0 10 -2 10
-4z m680 -46 c0 -5 -4 -10 -10 -10 -5 0 -10 5 -10 10 0 6 5 10 10 10 6 0 10
-4 10 -10z m-2564 -27 c-10 -10 -19 5 -10 18 6 11 8 11 12 0 2 -7 1 -15 -2
-18z m834 17 c0 -5 -2 -10 -4 -10 -3 0 -8 5 -11 10 -3 6 -1 10 4 10 6 0 11 -4
11 -10z m-1100 -19 c0 -5 -9 -11 -20 -14 -11 -3 -20 -1 -20 3 0 5 8 11 18 13
9 3 18 5 20 6 1 0 2 -3 2 -8z m1060 -1 c0 -5 -4 -10 -10 -10 -5 0 -10 5 -10
10 0 6 5 10 10 10 6 0 10 -4 10 -10z m-59 -43 c-8 -8 -11 -7 -11 4 0 20 13 34
18 19 3 -7 -1 -17 -7 -23z m776 18 c7 -20 -2 -29 -21 -22 -9 4 -13 13 -10 22
8 19 23 19 31 0z m-2102 -5 c-3 -5 -10 -10 -16 -10 -5 0 -9 5 -9 10 0 6 7 10
16 10 8 0 12 -4 9 -10z m2135 0 c0 -5 -2 -10 -4 -10 -3 0 -8 5 -11 10 -3 6 -1
10 4 10 6 0 11 -4 11 -10z m760 -30 c0 -5 -4 -10 -10 -10 -5 0 -10 5 -10 10 0
6 5 10 10 10 6 0 10 -4 10 -10z m-2254 -37 c-10 -10 -19 5 -10 18 6 11 8 11
12 0 2 -7 1 -15 -2 -18z m-136 9 c0 -13 -12 -22 -22 -16 -10 6 -1 24 13 24 5
0 9 -4 9 -8z m-220 -32 c0 -5 -4 -10 -10 -10 -5 0 -10 5 -10 10 0 6 5 10 10
10 6 0 10 -4 10 -10z m2510 -4 c0 -3 -4 -8 -10 -11 -5 -3 -10 -1 -10 4 0 6 5
11 10 11 6 0 10 -2 10 -4z m-1595 -16 c3 -5 1 -10 -4 -10 -6 0 -11 5 -11 10 0
6 2 10 4 10 3 0 8 -4 11 -10z m875 0 c0 -5 -4 -10 -10 -10 -5 0 -10 5 -10 10
0 6 5 10 10 10 6 0 10 -4 10 -10z m-1220 -10 c0 -5 -4 -10 -10 -10 -5 0 -10 5
-10 10 0 6 5 10 10 10 6 0 10 -4 10 -10z m-470 -10 c0 -5 -4 -10 -10 -10 -5 0
-10 5 -10 10 0 6 5 10 10 10 6 0 10 -4 10 -10z m225 0 c-3 -5 -10 -10 -16 -10
-5 0 -9 5 -9 10 0 6 7 10 16 10 8 0 12 -4 9 -10z m715 0 c0 -5 -2 -10 -4 -10
-3 0 -8 5 -11 10 -3 6 -1 10 4 10 6 0 11 -4 11 -10z m230 -14 c0 -3 -4 -8 -10
-11 -5 -3 -10 -1 -10 4 0 6 5 11 10 11 6 0 10 -2 10 -4z m1200 -16 c0 -5 -5
-10 -11 -10 -5 0 -7 5 -4 10 3 6 8 10 11 10 2 0 4 -4 4 -10z m-1585 -30 c3 -5
-1 -10 -10 -10 -9 0 -13 5 -10 10 3 6 8 10 10 10 2 0 7 -4 10 -10z m2 -65 c2
-22 -1 -35 -8 -35 -6 0 -9 8 -5 18 5 14 4 14 -9 -2 -8 -11 -15 -16 -15 -10 0
5 -5 1 -11 -8 -11 -20 -40 -13 -32 8 3 8 0 14 -6 14 -6 0 -11 5 -11 11 0 8 5
7 16 -2 14 -11 18 -10 30 6 8 10 14 13 14 6 0 -7 5 -9 11 -6 6 4 8 13 5 20 -5
14 4 28 12 20 3 -3 7 -21 9 -40z m628 25 c3 -5 1 -10 -4 -10 -6 0 -11 5 -11
10 0 6 2 10 4 10 3 0 8 -4 11 -10z m530 0 c-3 -5 -12 -7 -20 -3 -21 7 -19 13
6 13 11 0 18 -4 14 -10z m135 0 c0 -5 -5 -10 -11 -10 -5 0 -7 5 -4 10 3 6 8
10 11 10 2 0 4 -4 4 -10z m-560 -20 c0 -5 -2 -10 -4 -10 -3 0 -8 5 -11 10 -3
6 -1 10 4 10 6 0 11 -4 11 -10z m-75 -10 c3 -5 1 -10 -4 -10 -6 0 -11 5 -11
10 0 6 2 10 4 10 3 0 8 -4 11 -10z m-1535 -10 c0 -5 -5 -10 -11 -10 -5 0 -7 5
-4 10 3 6 8 10 11 10 2 0 4 -4 4 -10z m910 6 c0 -3 -4 -8 -10 -11 -5 -3 -10
-1 -10 4 0 6 5 11 10 11 6 0 10 -2 10 -4z m360 -6 c0 -5 -4 -10 -10 -10 -5 0
-10 5 -10 10 0 6 5 10 10 10 6 0 10 -4 10 -10z m-976 -31 c-3 -5 -10 -7 -15
-3 -5 3 -7 10 -3 15 3 5 10 7 15 3 5 -3 7 -10 3 -15z m2076 11 c0 -5 -4 -10
-10 -10 -5 0 -10 5 -10 10 0 6 5 10 10 10 6 0 10 -4 10 -10z m-1620 -10 c0 -5
-4 -10 -10 -10 -5 0 -10 5 -10 10 0 6 5 10 10 10 6 0 10 -4 10 -10z m164 -5
c-7 -18 -14 -18 -34 -4 -13 9 -12 10 3 5 9 -3 17 -1 17 4 0 6 4 10 10 10 5 0
7 -7 4 -15z m-103 -28 c-13 -13 -26 -3 -16 12 3 6 11 8 17 5 6 -4 6 -10 -1
-17z m689 7 c0 -2 -7 -4 -15 -4 -8 0 -15 4 -15 10 0 5 7 7 15 4 8 -4 15 -8 15
-10z m1265 7 c3 -5 1 -12 -5 -16 -5 -3 -10 1 -10 9 0 18 6 21 15 7z m-1389
-36 c10 -8 10 -14 -4 -31 l-18 -21 -17 23 c-14 19 -14 23 -2 28 8 3 15 13 16
23 0 14 2 15 6 3 4 -8 12 -19 19 -25z m44 25 c-8 -5 -22 -10 -30 -10 -13 0
-13 1 0 10 8 5 22 10 30 10 13 0 13 -1 0 -10z m-640 -10 c0 -5 -5 -10 -11 -10
-5 0 -7 5 -4 10 3 6 8 10 11 10 2 0 4 -4 4 -10z m-30 -4 c0 -2 -7 -9 -15 -16
-12 -10 -15 -10 -15 4 0 9 7 16 15 16 8 0 15 -2 15 -4z m-535 -46 c-5 -8 -11
-8 -17 -2 -6 6 -7 16 -3 22 5 8 11 8 17 2 6 -6 7 -16 3 -22z m753 12 c2 -7 -2
-10 -12 -6 -9 3 -16 11 -16 16 0 13 23 5 28 -10z m1732 -8 c0 -20 -4 -25 -22
-22 -41 6 -29 35 20 47 1 1 2 -11 2 -25z m-1840 2 c0 -2 -7 -7 -16 -10 -8 -3
-12 -2 -9 4 6 10 25 14 25 6z m1535 -6 c-3 -5 -11 -10 -16 -10 -6 0 -7 5 -4
10 3 6 11 10 16 10 6 0 7 -4 4 -10z m45 0 c0 -5 -4 -10 -9 -10 -6 0 -13 5 -16
10 -3 6 1 10 9 10 9 0 16 -4 16 -10z m-2180 -10 c0 -5 -4 -10 -10 -10 -5 0
-10 5 -10 10 0 6 5 10 10 10 6 0 10 -4 10 -10z m546 -5 c-9 -7 -16 -20 -16
-29 0 -9 -4 -16 -10 -16 -5 0 -10 -8 -10 -17 0 -15 -2 -16 -10 -3 -5 8 -6 17
-2 20 4 3 13 17 20 31 8 14 21 26 29 26 14 0 14 -2 -1 -12z m-456 -5 c0 -5 -4
-10 -10 -10 -5 0 -10 5 -10 10 0 6 5 10 10 10 6 0 10 -4 10 -10z m517 -15
c-14 -28 -32 -33 -41 -10 -4 10 2 19 17 25 34 13 36 12 24 -15z m-917 1 c0 -3
-4 -8 -10 -11 -5 -3 -10 -1 -10 4 0 6 5 11 10 11 6 0 10 -2 10 -4z m1132 -38
c48 -23 61 -38 32 -38 -11 0 -14 -6 -9 -20 3 -11 2 -20 -3 -20 -13 0 -29 21
-34 45 -2 14 -11 20 -27 19 -13 0 -32 7 -43 18 -17 17 -17 18 10 18 15 0 48
-10 74 -22z m-232 -7 c0 -6 -4 -13 -10 -16 -5 -3 -10 1 -10 9 0 9 5 16 10 16
6 0 10 -4 10 -9z m-630 -16 c0 -8 -4 -15 -10 -15 -5 0 -10 7 -10 15 0 8 5 15
10 15 6 0 10 -7 10 -15z m690 11 c0 -2 -9 -11 -20 -21 -19 -18 -20 -17 -20 1
0 13 7 20 20 21 11 1 20 0 20 -1z m570 -21 c0 -7 -7 -15 -15 -19 -10 -3 -15 1
-15 12 0 13 -2 14 -9 3 -10 -15 -31 -7 -31 13 0 8 12 11 35 8 20 -2 35 -10 35
-17z m-424 -27 c1 -38 0 -40 -12 -23 -17 23 -18 37 -2 53 7 7 12 12 13 12 0 0
1 -19 1 -42z m344 18 c0 -8 7 -19 15 -26 8 -7 12 -16 9 -21 -3 -5 0 -9 5 -9 6
0 11 -9 11 -20 0 -11 7 -20 15 -20 9 0 20 -12 25 -26 12 -29 13 -50 3 -41 -3
4 -15 -5 -25 -20 -17 -27 -18 -27 -18 -5 0 12 -4 22 -10 22 -5 0 -10 -4 -10
-10 0 -5 -5 -10 -11 -10 -6 0 -8 7 -5 15 4 11 0 15 -11 13 -9 -2 -18 2 -20 9
-2 6 6 13 19 15 18 2 23 10 24 35 2 34 -19 63 -31 43 -3 -5 -10 -10 -14 -10
-15 0 -51 38 -51 54 0 22 8 20 31 -6 l19 -23 -10 30 c-9 26 -8 28 4 13 18 -24
25 -23 18 4 -3 14 -2 19 6 14 7 -4 12 -13 12 -20z m-251 -16 c-6 -16 -15 -30
-19 -30 -5 0 -4 14 1 30 6 17 15 30 19 30 5 0 4 -13 -1 -30z m1661 20 c0 -5
-7 -10 -15 -10 -8 0 -15 5 -15 10 0 6 7 10 15 10 8 0 15 -4 15 -10z m-3160
-20 c0 -14 -17 -21 -34 -14 -12 5 -14 10 -6 20 12 13 40 9 40 -6z m890 -2 c0
-13 -32 -6 -37 9 -3 7 3 9 16 6 12 -3 21 -10 21 -15z m298 -3 c-3 -3 -9 2 -12
12 -6 14 -5 15 5 6 7 -7 10 -15 7 -18z m772 15 c0 -5 -5 -10 -11 -10 -5 0 -7
5 -4 10 3 6 8 10 11 10 2 0 4 -4 4 -10z m246 -2 c4 -7 3 -8 -4 -4 -16 9 -15
-9 0 -34 10 -15 10 -22 0 -32 -9 -9 -12 -6 -12 14 0 17 -6 28 -17 30 -15 3
-15 4 1 21 21 20 23 21 32 5z m-629 -26 c-10 -2 -17 -10 -17 -18 0 -12 4 -12
20 -4 28 15 40 5 40 -36 0 -26 3 -33 13 -28 8 5 8 2 -2 -9 -26 -32 -97 -13
-86 24 4 11 2 19 -4 19 -6 0 -11 7 -11 16 0 8 4 13 9 10 5 -4 12 8 16 24 6 27
9 29 22 18 15 -12 15 -13 0 -16z m1351 17 c-2 -6 -8 -10 -13 -10 -5 0 -11 4
-13 10 -2 6 4 11 13 11 9 0 15 -5 13 -11z m-1296 -21 c-7 -7 -12 -8 -12 -2 0
6 3 14 7 17 3 4 9 5 12 2 2 -3 -1 -11 -7 -17z m408 12 c0 -5 -5 -10 -11 -10
-5 0 -7 5 -4 10 3 6 8 10 11 10 2 0 4 -4 4 -10z m580 -10 c0 -5 -4 -10 -10
-10 -5 0 -10 5 -10 10 0 6 5 10 10 10 6 0 10 -4 10 -10z m580 0 c0 -5 -4 -10
-10 -10 -5 0 -10 5 -10 10 0 6 5 10 10 10 6 0 10 -4 10 -10z m-2380 -10 c0 -5
-4 -10 -10 -10 -5 0 -10 5 -10 10 0 6 5 10 10 10 6 0 10 -4 10 -10z m234 1 c3
-5 -6 -8 -20 -8 -19 0 -22 2 -13 8 18 11 26 11 33 0z m1061 -1 c3 -5 1 -10 -4
-10 -6 0 -11 5 -11 10 0 6 2 10 4 10 3 0 8 -4 11 -10z m-775 -4 c0 -2 3 -12 7
-22 4 -11 3 -15 -4 -11 -6 4 -13 -4 -15 -17 -4 -18 -1 -23 9 -19 11 4 12 1 2
-21 -11 -24 -21 -30 -41 -27 -4 0 -5 -6 -2 -13 3 -8 12 -12 19 -10 18 7 26 -9
13 -26 -8 -12 -9 -11 -4 4 5 13 2 17 -9 13 -8 -4 -21 3 -30 16 -8 12 -15 17
-15 11 0 -6 -11 -17 -25 -24 -13 -7 -22 -17 -19 -22 8 -12 -15 -38 -34 -38
-20 0 -41 -29 -42 -60 -1 -23 -2 -23 -10 -5 -8 19 -9 19 -9 -2 -1 -24 -16 -39
-25 -24 -4 5 -2 12 3 15 5 3 7 16 3 28 -4 16 -2 19 8 13 8 -5 11 -4 6 3 -3 6
-2 13 4 17 13 8 13 25 0 25 -5 0 -10 -6 -10 -13 0 -9 -23 -19 -57 -27 -71 -16
-85 -26 -38 -26 35 0 65 -18 52 -30 -4 -4 -15 0 -25 9 -23 21 -33 21 -58 1
-18 -15 -18 -15 4 -11 15 4 22 1 19 -6 -3 -7 -10 -11 -16 -9 -7 1 -25 -7 -40
-18 -28 -19 -29 -19 -46 0 -16 18 -16 18 3 13 11 -2 23 1 27 7 5 8 -4 11 -31
9 -22 -2 -39 1 -39 7 0 5 19 9 42 9 22 0 45 4 50 9 4 5 -1 7 -14 3 -13 -3 -23
-1 -23 4 0 5 -16 9 -35 9 -21 0 -38 6 -41 14 -3 8 -16 13 -30 11 -20 -2 -25 2
-23 19 2 33 -2 43 -10 23 -7 -18 -8 -18 -21 -1 -9 11 -10 15 -2 10 6 -4 12 -2
12 3 0 6 12 11 26 11 14 0 32 7 40 15 9 8 24 15 35 15 11 0 17 4 14 10 -3 5 0
7 8 4 15 -5 31 21 22 35 -2 5 21 8 53 8 31 -1 49 -3 40 -5 -37 -8 -17 -22 22
-16 27 4 40 3 40 -5 0 -6 -6 -11 -12 -12 -10 0 -10 -2 -1 -6 7 -2 22 5 34 16
12 11 27 17 33 13 7 -4 4 -8 -6 -10 -19 -4 -25 -22 -8 -22 6 0 23 6 38 14 15
7 43 13 63 12 25 -1 35 2 32 11 -3 6 -11 9 -19 6 -21 -8 -17 21 7 48 l20 24
-11 -24 c-10 -18 -9 -25 1 -32 17 -10 32 -1 25 16 -3 8 7 19 24 27 19 8 25 15
17 20 -8 5 -6 8 6 8 9 0 17 -2 17 -4z m-140 -21 c0 -8 -4 -15 -10 -15 -5 0
-10 7 -10 15 0 8 5 15 10 15 6 0 10 -7 10 -15z m690 3 c0 7 5 10 10 7 6 -4 7
-11 4 -17 -4 -6 1 -17 10 -23 14 -11 14 -13 2 -18 -23 -9 -61 26 -52 49 6 16
9 16 16 4 7 -11 10 -12 10 -2z m880 -9 c0 -5 -7 -9 -15 -9 -15 0 -20 12 -9 23
8 8 24 -1 24 -14z m-1015 1 c3 -5 1 -10 -4 -10 -6 0 -11 5 -11 10 0 6 2 10 4
10 3 0 8 -4 11 -10z m-620 -10 c3 -5 1 -10 -4 -10 -6 0 -11 5 -11 10 0 6 2 10
4 10 3 0 8 -4 11 -10z m-325 -25 c0 -8 -7 -15 -15 -15 -16 0 -20 12 -8 23 11
12 23 8 23 -8z m250 -6 c0 -6 -4 -7 -10 -4 -5 3 -10 11 -10 16 0 6 5 7 10 4 6
-3 10 -11 10 -16z m668 4 c-10 -2 -18 -11 -18 -19 0 -9 -7 -14 -17 -12 -26 5
-27 26 -1 31 31 6 58 6 36 0z m-553 -13 c3 -5 1 -10 -4 -10 -6 0 -11 5 -11 10
0 6 2 10 4 10 3 0 8 -4 11 -10z m1400 0 c3 -5 1 -10 -4 -10 -6 0 -11 5 -11 10
0 6 2 10 4 10 3 0 8 -4 11 -10z m-2435 -10 c0 -5 -4 -10 -9 -10 -6 0 -13 5
-16 10 -3 6 1 10 9 10 9 0 16 -4 16 -10z m2070 0 c0 -5 -5 -10 -11 -10 -5 0
-7 5 -4 10 3 6 8 10 11 10 2 0 4 -4 4 -10z m320 -20 c0 -5 -2 -10 -4 -10 -3 0
-8 5 -11 10 -3 6 -1 10 4 10 6 0 11 -4 11 -10z m-1681 -26 c-12 -15 -49 -20
-49 -6 0 10 43 29 53 24 4 -2 3 -10 -4 -18z m549 -21 c-16 -20 -28 -16 -27 10
0 12 3 16 6 10 7 -20 23 -15 17 5 -5 14 -4 14 4 2 8 -10 8 -18 0 -27z m622 27
c0 -5 -4 -10 -10 -10 -5 0 -10 5 -10 10 0 6 5 10 10 10 6 0 10 -4 10 -10z
m-570 -10 c0 -5 -4 -10 -10 -10 -5 0 -10 5 -10 10 0 6 5 10 10 10 6 0 10 -4
10 -10z m580 -65 c-5 -7 -7 -15 -3 -18 3 -4 1 -7 -7 -7 -10 0 -10 -3 0 -15 11
-13 8 -15 -13 -15 -14 0 -29 5 -32 10 -4 6 -11 8 -16 5 -5 -4 -9 5 -9 20 0 14
6 28 14 31 10 4 12 16 9 37 l-5 32 36 -34 c25 -24 33 -38 26 -46z m441 52
c-13 -13 -26 -3 -16 12 3 6 11 8 17 5 6 -4 6 -10 -1 -17z m-1197 -1 c-3 -8
-12 -17 -20 -20 -18 -7 -18 -1 2 18 19 20 25 20 18 2z m931 -45 c-5 -17 -2
-21 18 -21 22 0 25 -4 23 -32 -4 -47 -5 -48 -20 -42 -7 3 -16 -2 -19 -10 -4
-10 -1 -13 9 -9 9 3 14 -1 14 -12 0 -9 -4 -14 -9 -10 -5 3 -17 -2 -26 -11 -12
-13 -19 -14 -28 -5 -11 11 -9 12 13 15 6 0 10 4 10 9 0 4 0 14 0 23 0 8 -4 12
-10 9 -5 -3 -10 1 -10 9 0 9 6 16 14 16 10 0 13 14 13 53 -1 28 -3 44 -5 35
-2 -10 -8 -18 -14 -18 -6 0 -8 -9 -5 -21 4 -16 3 -18 -8 -9 -8 7 -19 9 -25 5
-13 -8 -13 -5 1 33 7 20 15 29 25 25 10 -4 12 0 7 13 -6 16 -4 15 16 -3 16
-15 21 -27 16 -42z m-408 13 c8 -8 8 -15 1 -22 -6 -6 -6 -12 1 -16 6 -4 11 -2
11 5 0 7 3 10 6 6 3 -3 -1 -15 -9 -27 -12 -17 -16 -18 -26 -7 -6 8 -8 17 -4
20 3 4 -7 7 -23 8 l-29 1 30 13 c19 9 24 14 13 15 -12 0 -18 8 -18 21 0 19 2
20 17 8 10 -8 23 -19 30 -25z m-1547 12 c0 -3 -4 -8 -10 -11 -5 -3 -10 -1 -10
4 0 6 5 11 10 11 6 0 10 -2 10 -4z m430 -16 c0 -5 -4 -10 -9 -10 -6 0 -13 5
-16 10 -3 6 1 10 9 10 9 0 16 -4 16 -10z m59 -4 c21 -25 -19 -41 -66 -27 -2 1
5 10 15 20 21 23 36 26 51 7z m820 5 c18 -12 22 -61 4 -54 -7 3 -13 0 -13 -7
0 -10 -3 -10 -15 0 -8 7 -15 9 -15 4 0 -14 14 -31 30 -37 12 -4 12 -6 -2 -6
-16 -1 -17 -12 -9 -78 1 -15 51 -18 51 -3 0 6 7 10 16 10 14 0 15 -2 3 -17
-12 -16 -11 -16 8 0 12 11 19 25 17 32 -3 7 2 15 12 19 12 5 15 14 11 39 -3
17 -3 26 0 20 7 -19 23 -16 24 5 0 13 3 11 12 -7 9 -19 9 -25 -1 -29 -6 -2
-12 -8 -12 -13 0 -16 21 1 30 25 9 21 9 21 9 -2 1 -13 5 -21 10 -17 5 3 12 1
16 -5 3 -5 1 -10 -4 -10 -6 0 -20 -9 -31 -20 -12 -12 -20 -15 -20 -7 0 6 -5 4
-11 -6 -12 -20 -3 -40 14 -30 7 4 6 -1 -2 -11 -10 -12 -11 -20 -3 -28 13 -13
44 7 40 26 -2 6 2 12 7 13 11 1 11 -2 0 -29 -5 -12 -2 -18 8 -18 8 0 17 9 20
20 3 13 13 20 29 19 l23 -1 -25 -8 c-24 -8 -24 -8 -2 -9 24 -1 25 -5 13 -36
-8 -19 -8 -19 -15 3 l-8 23 -24 -23 c-13 -13 -24 -29 -24 -37 0 -11 -4 -10
-16 5 -13 16 -15 16 -10 2 3 -12 0 -18 -9 -18 -21 0 -19 -12 5 -33 11 -9 20
-13 20 -8 0 5 9 7 20 4 17 -5 20 0 20 26 0 17 4 31 9 31 5 0 7 -8 4 -18 -6
-25 15 -75 28 -66 7 4 9 0 5 -13 -5 -15 -1 -19 22 -20 15 0 19 1 10 4 -13 3
-18 14 -18 36 0 19 4 27 8 20 10 -16 35 -11 56 10 23 22 32 123 12 130 -8 3
-17 -1 -20 -9 -3 -9 -11 -12 -16 -9 -6 4 -9 1 -8 -6 2 -7 -5 -15 -15 -17 -13
-3 -17 1 -15 14 2 11 -6 23 -21 30 -41 21 -54 54 -21 54 12 0 17 -5 14 -14 -3
-8 4 -15 20 -18 17 -4 23 -1 19 9 -3 7 -10 10 -17 6 -6 -4 -5 1 3 10 7 9 22
17 33 17 16 0 19 5 14 23 -4 16 1 28 14 40 11 9 20 24 20 32 0 8 5 15 12 15 6
0 8 -3 5 -7 -4 -3 -2 -12 5 -20 9 -11 7 -12 -6 -7 -15 6 -17 2 -11 -29 4 -19
7 -52 8 -72 1 -33 3 -36 24 -30 27 6 31 -10 6 -24 -16 -8 -15 -10 9 -16 26 -7
49 6 86 47 11 12 18 14 23 6 5 -7 16 -4 35 11 26 21 28 21 38 4 15 -28 29 -39
59 -47 25 -6 27 -4 24 16 -2 13 -2 17 0 11 3 -7 9 -13 14 -13 5 0 9 6 10 13 0
9 2 9 5 0 3 -7 18 -10 38 -6 38 6 55 -10 36 -32 -18 -21 -46 -18 -63 6 -9 13
-17 16 -22 10 -3 -6 -1 -11 5 -11 6 0 8 -4 5 -10 -3 -5 1 -10 10 -10 11 0 15
-5 12 -14 -3 -8 0 -20 8 -26 13 -10 13 -46 0 -58 -3 -3 -11 0 -18 7 -9 10 -8
15 7 27 11 8 15 14 9 14 -5 0 -18 15 -28 34 -19 36 -41 39 -30 5 5 -15 3 -18
-12 -12 -19 6 -59 43 -47 43 3 0 1 7 -6 15 -7 8 -16 13 -20 10 -5 -3 -11 1
-13 7 -3 7 -6 3 -6 -9 -1 -12 7 -26 16 -32 17 -9 16 -11 -1 -30 -10 -11 -23
-18 -27 -15 -15 9 -10 24 8 24 16 0 16 1 1 16 -13 13 -20 14 -34 4 -17 -10
-17 -11 -1 -6 14 5 16 1 11 -22 -7 -30 -24 -54 -24 -33 0 7 -6 9 -12 6 -7 -4
-5 0 5 8 32 27 17 28 -28 2 -29 -17 -55 -25 -76 -23 -22 2 -34 -2 -37 -12 -5
-13 -3 -13 11 -1 10 7 17 10 17 5 0 -18 -25 -74 -33 -74 -5 0 -7 7 -3 15 7 20
0 19 -24 -5 -24 -24 -24 -26 -4 -34 8 -3 12 -2 9 3 -3 5 -1 12 4 15 5 4 12 2
16 -4 3 -5 15 -10 26 -10 10 0 19 -4 19 -10 0 -5 -5 -10 -11 -10 -6 0 -9 -6
-7 -12 3 -7 -4 -21 -14 -30 -10 -10 -18 -13 -18 -7 0 5 -4 8 -9 5 -5 -4 -12 0
-14 6 -3 7 -6 1 -6 -14 -1 -18 -6 -28 -16 -28 -8 0 -15 -7 -15 -15 0 -18 21
-20 39 -2 10 10 12 7 9 -13 -2 -16 2 -25 11 -25 8 0 16 -6 19 -14 3 -10 0 -12
-12 -8 -19 8 -22 -13 -3 -32 10 -10 9 -11 -4 -6 -13 5 -23 -6 -40 -42 -30 -61
-29 -60 -38 -44 -7 11 -15 11 -42 -3 -21 -11 -35 -13 -37 -6 -2 5 -7 10 -11
10 -11 0 -11 -79 0 -85 5 -4 9 -12 9 -18 0 -7 -4 -6 -10 3 -8 12 -10 12 -10 1
0 -11 -3 -11 -15 -1 -12 10 -15 9 -15 -4 0 -10 -4 -14 -10 -11 -5 3 -10 -2
-10 -11 0 -15 -2 -15 -18 2 -9 10 -27 25 -40 32 -19 11 -23 10 -29 -4 -5 -13
-7 -13 -14 -2 -7 10 -14 7 -29 -12 -22 -28 -25 -40 -10 -40 6 0 10 7 10 15 0
24 18 17 22 -7 2 -16 9 -22 21 -20 15 3 17 -1 12 -17 -4 -12 -2 -21 4 -21 6 0
11 4 11 10 0 5 10 8 23 6 12 -2 21 -10 19 -17 -2 -9 0 -10 11 -1 11 10 16 6
26 -15 l12 -27 24 30 c27 33 45 25 51 -23 1 -15 8 -29 13 -31 23 -8 10 -22
-14 -16 -19 5 -25 2 -25 -10 0 -9 -6 -16 -12 -17 -7 0 -21 -2 -31 -4 -9 -2
-15 1 -11 6 3 5 9 7 14 4 4 -3 10 4 13 15 6 25 -14 22 -30 -5 -15 -26 0 -55
26 -48 16 4 19 1 14 -16 -3 -11 -12 -26 -21 -33 -13 -11 -14 -10 -8 10 6 16 3
22 -8 22 -9 0 -16 -9 -16 -20 0 -11 -5 -20 -11 -20 -6 0 -8 9 -4 20 4 11 2 20
-4 20 -6 0 -11 11 -11 25 0 15 -6 25 -14 25 -9 0 -12 7 -9 20 3 11 0 20 -6 20
-6 0 -11 5 -11 12 0 9 3 9 12 0 16 -16 25 -15 31 2 4 10 0 12 -14 9 -10 -3
-19 0 -19 6 0 5 -7 8 -15 5 -8 -4 -15 -1 -15 5 0 6 -4 11 -10 11 -5 0 -7 -8
-4 -17 5 -14 4 -15 -4 -4 -7 9 -19 11 -37 7 -21 -5 -26 -11 -22 -27 4 -15 2
-19 -8 -15 -8 3 -17 1 -21 -5 -3 -6 -12 -8 -20 -5 -8 3 -11 0 -7 -10 6 -17
-13 -19 -20 -1 -4 9 -8 8 -16 -3 -7 -10 -11 -11 -11 -2 0 6 -4 12 -9 12 -5 0
-9 -13 -9 -29 1 -15 -2 -33 -6 -39 -3 -6 -1 -14 5 -18 8 -5 7 -9 -2 -14 -21
-14 -19 -41 4 -50 15 -5 29 -3 44 6 26 16 47 19 38 4 -8 -13 5 -13 25 0 12 8
12 10 1 10 -8 0 -11 3 -8 6 4 4 13 1 21 -5 16 -13 40 -6 31 9 -6 9 25 23 33
15 3 -3 1 -5 -5 -5 -6 0 -9 -9 -6 -19 3 -14 -2 -21 -19 -27 l-23 -8 25 -6 c14
-4 29 -3 34 2 17 14 56 9 56 -7 0 -8 5 -15 11 -15 6 0 8 9 4 20 -9 28 18 26
51 -5 17 -16 24 -30 20 -41 -5 -13 -2 -15 13 -11 25 6 51 -20 32 -32 -9 -6 -7
-10 8 -14 28 -7 34 3 15 31 -8 13 -13 31 -9 40 5 14 9 13 28 -6 16 -16 18 -25
10 -33 -15 -15 -5 -39 16 -39 9 0 12 3 6 8 -5 4 -11 23 -12 43 l-1 37 41 -3
c23 -2 52 -7 65 -11 21 -6 21 -7 5 -20 -17 -13 -17 -13 0 -14 9 0 17 -4 17 -9
0 -5 16 -12 35 -15 32 -6 50 -26 23 -26 -6 0 -3 -6 7 -14 18 -13 18 -14 -10
-10 -25 4 -27 3 -10 -5 11 -5 14 -10 8 -10 -9 -1 -10 -8 -3 -27 12 -32 12 -34
0 -34 -5 0 -13 12 -16 27 -10 41 -14 45 -31 32 -12 -10 -16 -10 -24 2 -7 11
-9 11 -9 -3 0 -10 -4 -18 -10 -18 -5 0 -9 3 -9 8 3 19 -2 25 -11 12 -8 -13
-10 -12 -10 3 0 9 -4 17 -10 17 -15 0 -12 -16 6 -35 9 -9 14 -25 11 -35 -7
-27 2 -25 13 2 l9 23 7 -22 c3 -13 10 -23 15 -23 5 0 6 6 4 13 -3 6 3 17 13
23 16 10 21 6 38 -30 19 -41 19 -42 0 -44 -11 0 -23 -7 -27 -14 -6 -10 -9 -9
-14 3 -3 8 -15 15 -25 16 -11 1 -18 -2 -16 -6 8 -13 -30 -6 -56 11 -13 8 -36
16 -51 15 -34 0 -47 11 -28 23 9 5 2 8 -22 7 -20 0 -32 -4 -26 -8 7 -4 8 -12
3 -20 -4 -7 -7 -28 -6 -46 2 -18 -2 -33 -8 -33 -5 0 -10 14 -10 32 0 24 -3 29
-11 21 -9 -9 -19 -8 -40 2 -31 17 -44 7 -34 -25 4 -11 2 -20 -3 -20 -6 0 -13
11 -16 25 -4 14 -11 25 -16 25 -6 0 -10 7 -10 17 0 13 -4 11 -21 -8 -18 -21
-19 -25 -4 -35 12 -9 13 -13 3 -16 -23 -8 9 -37 34 -30 14 3 19 1 14 -7 -10
-15 21 -44 39 -37 10 3 20 -5 30 -24 9 -17 19 -30 23 -31 36 -4 71 -19 43 -19
-7 0 -9 -5 -5 -12 6 -10 4 -10 -8 0 -14 11 -16 8 -20 -23 -3 -24 0 -35 9 -35
13 0 33 -30 33 -49 0 -22 -27 -10 -39 16 -7 15 -15 22 -19 17 -11 -16 -50 -23
-56 -10 -2 6 -5 3 -5 -6 -1 -10 -6 -18 -12 -18 -6 0 -9 5 -7 12 2 6 -6 21 -19
34 -25 25 -22 57 5 46 15 -5 15 -3 4 10 -8 10 -9 19 -3 22 5 3 11 0 14 -6 2
-7 8 -10 12 -5 5 4 0 14 -11 21 -17 13 -20 12 -26 -5 -12 -30 -26 -22 -25 14
2 26 6 32 24 31 12 0 19 4 16 9 -3 5 -16 6 -29 3 -13 -4 -24 -2 -24 3 0 5 -9
7 -20 4 -12 -3 -22 1 -26 10 -7 18 -44 11 -44 -10 0 -8 -5 -11 -11 -8 -7 5 -5
15 6 32 9 14 14 27 11 31 -3 3 -6 0 -6 -7 0 -8 -7 -11 -15 -7 -8 3 -14 2 -14
-2 3 -19 -3 -22 -21 -12 -11 6 -20 17 -20 25 0 8 -7 15 -15 15 -8 0 -15 7 -15
15 0 8 7 15 15 15 8 0 15 -7 15 -14 0 -22 57 0 65 25 8 25 -3 59 -19 59 -18 0
-25 -10 -19 -27 5 -12 7 -12 14 -1 6 9 9 7 9 -8 0 -12 -7 -27 -15 -34 -13 -10
-19 -9 -35 5 -16 14 -18 21 -8 28 9 6 7 7 -5 3 -10 -3 -22 -6 -25 -6 -4 0 -7
-23 -8 -51 -1 -56 -20 -91 -22 -39 0 17 3 28 8 25 4 -2 7 13 7 35 0 22 -4 40
-9 40 -17 0 -7 29 12 35 17 6 18 8 6 21 -17 16 -30 19 -21 4 3 -5 1 -10 -4
-10 -11 0 -15 19 -11 55 l2 20 -16 -20 c-14 -18 -15 -18 -16 -2 0 9 -5 17 -11
17 -6 0 -8 -9 -4 -20 7 -22 -5 -26 -23 -8 -9 9 -12 8 -12 -4 0 -9 6 -18 12
-20 8 -3 12 -21 12 -47 -1 -26 2 -38 7 -30 11 18 21 6 13 -15 -5 -13 -9 -14
-20 -5 -9 7 -29 9 -53 5 -50 -8 -71 1 -70 28 0 21 0 21 9 -2 5 -12 14 -22 19
-22 5 0 3 14 -6 30 -8 17 -12 38 -8 48 4 12 0 10 -15 -5 -23 -26 -45 -31 -37
-9 3 8 -1 17 -9 20 -9 3 -12 2 -9 -5 4 -6 -3 -7 -19 -3 -18 4 -26 2 -26 -7 0
-12 -2 -12 -9 0 -9 15 -47 17 -96 6 -23 -5 -26 -4 -15 4 10 7 11 11 3 11 -7 0
-13 7 -13 16 0 10 -6 14 -14 11 -10 -4 -14 0 -13 14 1 10 8 19 17 19 13 0 13
1 0 10 -12 7 -8 11 16 16 28 5 31 9 30 42 -1 34 -3 37 -28 34 -20 -2 -32 4
-49 27 -25 34 -50 34 -81 -1 -9 -11 -22 -17 -27 -13 -6 3 -11 -1 -11 -10 0
-15 -1 -15 -16 -1 -8 9 -12 21 -8 28 5 7 2 9 -9 5 -9 -3 -18 0 -21 9 -3 8 -11
14 -18 14 -10 0 -10 -2 1 -9 11 -7 9 -11 -9 -21 -12 -6 -24 -9 -28 -6 -3 3 0
6 6 6 7 0 12 5 12 10 0 6 -8 10 -17 10 -17 1 -17 1 0 11 9 6 14 15 11 21 -5 7
-2 9 8 5 21 -8 30 3 17 19 -9 11 -6 16 12 23 24 10 23 10 -5 10 -25 1 -27 3
-15 18 13 15 12 15 -9 4 -28 -15 -40 -8 -22 14 7 9 29 15 51 15 l38 0 -4 38
c-4 28 -3 31 3 12 9 -29 36 -37 58 -19 14 11 14 13 0 21 -9 5 -16 15 -16 23 0
7 -6 16 -12 18 -8 3 -5 6 6 6 15 1 16 4 6 16 -10 13 -9 15 9 15 11 0 21 4 21
8 0 5 -15 6 -32 4 -30 -5 -32 -3 -19 12 18 22 5 20 -25 -3 -13 -10 -20 -22
-16 -26 4 -5 2 -5 -5 -1 -6 3 -14 2 -18 -4 -3 -5 -20 -10 -36 -10 -17 0 -28 4
-24 9 3 6 -3 15 -14 20 -27 15 -31 14 -32 -6 0 -14 -2 -15 -6 -3 -3 8 -10 18
-15 21 -5 3 -6 13 -2 23 6 15 7 15 20 -1 16 -21 18 -10 4 18 -8 13 -7 19 0 19
7 0 9 8 5 20 -3 11 -4 20 0 20 11 0 60 -35 73 -52 14 -20 48 -23 72 -8 8 5 11
10 6 10 -6 0 -1 7 10 15 17 12 17 14 2 15 -14 0 -16 7 -11 35 3 20 1 41 -6 48
-6 8 -8 17 -4 21 10 10 -29 -5 -44 -17 -16 -12 -17 3 -2 37 7 14 15 23 19 21
4 -3 13 2 20 10 18 21 27 19 34 -10 7 -27 36 -25 36 4 0 14 -2 14 -10 1 -12
-19 -13 -5 -1 18 5 9 12 25 15 36 4 11 12 16 21 12 8 -3 15 -1 15 4 0 6 7 10
15 10 8 0 15 4 15 9 0 5 -7 11 -15 15 -8 3 -15 2 -15 -3 0 -5 -16 -16 -35 -25
-21 -10 -32 -22 -29 -30 3 -8 1 -17 -5 -21 -6 -3 -11 -2 -11 4 0 6 -7 8 -15 5
-9 -4 -15 0 -15 9 0 10 -7 14 -22 11 -21 -4 -21 -4 -3 5 11 4 23 7 26 5 4 -2
12 3 19 11 7 8 8 15 3 15 -6 0 -8 11 -5 25 2 15 9 22 16 18 6 -3 8 -3 4 2 -4
4 -2 15 5 23 10 13 9 14 -10 4 -28 -16 -33 -15 -33 3 0 9 7 15 16 13 10 -2 19
3 22 11 3 9 0 11 -8 6 -7 -4 -16 -2 -21 6 -8 12 -11 12 -19 -1 -5 -8 -7 -23
-4 -32 4 -13 1 -16 -10 -12 -18 7 -21 20 -6 29 15 9 12 25 -6 25 -8 0 -12 5
-9 10 3 6 0 10 -7 11 -10 0 -10 2 0 6 7 2 12 22 12 44 0 25 4 38 10 34 6 -4 9
-9 6 -13 -2 -4 0 -16 5 -27 6 -17 8 -17 8 -3 1 11 6 15 16 12 11 -4 13 -13 9
-28 -4 -11 -3 -18 1 -14 10 10 37 -11 29 -23 -3 -5 9 -9 27 -9 25 0 30 -3 21
-12 -7 -7 -8 -17 -1 -30 11 -21 35 -24 43 -5 4 6 4 2 2 -11 -4 -23 -4 -23 19
2 21 23 42 31 68 27 12 -2 8 44 -5 58 -11 11 -10 12 1 6 11 -6 13 -3 8 14 -4
18 -2 21 14 16 15 -5 19 -1 19 15 0 12 5 18 10 15 6 -3 10 -1 10 5 0 7 7 10
14 7 10 -4 13 -1 9 9 -5 13 7 18 36 15 8 -2 10 2 5 11 -6 10 -4 10 9 -1 15
-12 17 -11 17 7 0 11 -6 23 -12 26 -7 4 -3 4 10 2 15 -3 22 1 22 12 0 15 2 15
10 2 8 -13 11 -13 19 -1 7 11 11 10 20 -5 8 -14 11 -15 11 -4 0 13 1 13 10 0
8 -13 10 -13 10 2 0 11 5 15 15 12 9 -4 15 0 15 10 0 9 5 16 10 16 7 0 8 -13
4 -34 -5 -32 -4 -34 15 -29 16 4 21 1 22 -13 0 -15 2 -15 6 -4 3 8 10 17 14
20 4 3 4 12 -1 20 -8 12 -10 11 -10 -5 -1 -20 -1 -20 -15 -1 -8 11 -15 27 -14
35 0 12 3 10 9 -4 8 -17 9 -16 9 9 1 22 -3 27 -15 22 -10 -4 -14 -2 -11 6 2 7
10 12 17 10 7 -2 10 3 7 10 -7 19 -14 44 -10 35 7 -11 23 2 23 19 0 8 -4 12
-10 9 -6 -4 -10 5 -10 21 0 26 0 27 20 9 19 -18 20 -17 20 6 1 22 1 23 12 5 8
-15 7 -22 -5 -31 -19 -14 -34 -135 -17 -135 7 0 9 8 5 20 -5 14 -2 20 9 20 9
0 16 8 16 18 0 14 -2 14 -9 3 -6 -10 -9 -2 -8 22 0 21 4 37 8 37 10 0 29 -82
22 -93 -4 -6 -1 -7 6 -2 8 4 10 17 6 33 -5 22 -4 24 9 13 13 -11 16 -11 16 2
0 9 -10 23 -21 31 -18 12 -19 17 -8 29 12 12 16 8 32 -27 12 -25 21 -36 24
-27 3 7 -1 17 -8 22 -7 4 -10 11 -7 14 4 4 13 3 20 -1 7 -4 21 -9 30 -9 23 -2
37 -16 21 -22 -7 -3 -13 -9 -13 -14 0 -6 4 -8 9 -4 5 3 12 -3 14 -12 4 -14 5
-13 6 4 1 16 6 21 16 17 18 -7 19 -3 4 29 -8 17 -17 23 -30 20 -29 -8 -23 6 8
18 18 7 28 6 33 -1 4 -7 12 1 20 19 13 32 25 37 49 22z m-1359 -11 c0 -5 -2
-10 -4 -10 -3 0 -8 5 -11 10 -3 6 -1 10 4 10 6 0 11 -4 11 -10z m1240 -10 c0
-5 -2 -10 -4 -10 -3 0 -8 5 -11 10 -3 6 -1 10 4 10 6 0 11 -4 11 -10z m-264
-67 c-11 -11 -19 6 -11 24 8 17 8 17 12 0 3 -10 2 -21 -1 -24z m981 15 c-3 -8
-6 -5 -6 6 -1 11 2 17 5 13 3 -3 4 -12 1 -19z m-2099 1 c-2 -6 -8 -10 -13 -10
-5 0 -11 4 -13 10 -2 6 4 11 13 11 9 0 15 -5 13 -11z m1784 -6 c4 -20 -21 -55
-34 -47 -14 9 -9 24 8 24 11 0 14 6 9 20 -3 11 -2 20 4 20 5 0 11 -8 13 -17z
m-1042 -7 c0 -7 -9 -16 -20 -19 -22 -6 -23 -5 -14 17 8 20 34 21 34 2z m1320
5 c0 -14 -30 -41 -45 -41 -8 0 -11 7 -8 21 3 12 11 18 19 15 8 -3 14 -1 14 4
0 6 5 10 10 10 6 0 10 -4 10 -9z m-940 -25 c0 -3 -4 -8 -10 -11 -5 -3 -10 -1
-10 4 0 6 5 11 10 11 6 0 10 -2 10 -4z m-760 -39 c0 -5 -4 -5 -10 -2 -5 3 -10
14 -10 23 0 15 2 15 10 2 5 -8 10 -19 10 -23z m663 3 c-3 -11 -14 -20 -24 -20
-27 0 -24 28 4 33 12 2 23 5 24 6 0 0 -1 -8 -4 -19z m-573 -10 c0 -5 -4 -10
-10 -10 -5 0 -10 5 -10 10 0 6 5 10 10 10 6 0 10 -4 10 -10z m1240 1 c0 -5 -7
-11 -15 -15 -15 -5 -20 5 -8 17 9 10 23 9 23 -2z m-925 -11 c3 -5 -1 -10 -10
-10 -9 0 -13 5 -10 10 3 6 8 10 10 10 2 0 7 -4 10 -10z m85 0 c0 -5 -2 -10 -4
-10 -3 0 -8 5 -11 10 -3 6 -1 10 4 10 6 0 11 -4 11 -10z m-680 -10 c0 -5 -4
-10 -10 -10 -5 0 -10 5 -10 10 0 6 5 10 10 10 6 0 10 -4 10 -10z m490 0 c0 -5
-4 -10 -10 -10 -5 0 -10 5 -10 10 0 6 5 10 10 10 6 0 10 -4 10 -10z m224 -25
c-15 -23 -15 -25 0 -31 9 -3 16 -13 16 -21 0 -13 -3 -13 -16 -2 -13 11 -15 11
-14 -2 5 -34 -1 -49 -20 -49 -11 0 -20 -7 -20 -15 0 -19 -7 -19 -26 0 -18 17
-9 39 12 31 17 -7 18 6 2 23 -11 10 -9 11 6 5 15 -6 17 -3 12 17 -3 13 -3 18
0 12 8 -18 24 -16 24 3 0 21 19 54 31 54 5 0 2 -11 -7 -25z m126 21 c0 -3 -4
-8 -10 -11 -5 -3 -10 -1 -10 4 0 6 5 11 10 11 6 0 10 -2 10 -4z m-163 -28 c-3
-8 -6 -5 -6 6 -1 11 2 17 5 13 3 -3 4 -12 1 -19z m1108 12 c-3 -5 -16 -10 -28
-10 -18 0 -19 2 -7 10 20 13 43 13 35 0z m-1681 -32 c-8 -13 -34 -9 -34 5 0 8
-4 7 -10 -3 -7 -11 -10 -11 -10 -2 0 7 -5 10 -12 6 -7 -4 -8 -3 -4 5 4 6 12 9
17 6 5 -4 9 -2 9 3 0 6 10 5 24 -1 13 -7 22 -15 20 -19z m300 23 c3 -5 -1 -11
-9 -14 -9 -4 -12 -1 -8 9 6 16 10 17 17 5z m-264 -11 c0 -5 -5 -10 -11 -10 -5
0 -7 5 -4 10 3 6 8 10 11 10 2 0 4 -4 4 -10z m637 -5 c0 -8 -4 -15 -9 -15 -10
0 -11 14 -1 23 9 10 10 9 10 -8z m-240 -1 c-3 -3 -12 -4 -19 -1 -8 3 -5 6 6 6
11 1 17 -2 13 -5z m-169 -24 c12 -19 11 -20 -8 -8 -11 7 -20 16 -20 20 0 15
15 8 28 -12z m1727 0 c-4 -6 -1 -18 6 -26 6 -8 9 -17 6 -20 -8 -9 -29 35 -22
46 3 6 8 10 11 10 3 0 2 -5 -1 -10z m-1325 -4 c0 -3 -4 -8 -10 -11 -5 -3 -10
-1 -10 4 0 6 5 11 10 11 6 0 10 -2 10 -4z m1440 -17 c0 -11 -27 -12 -34 0 -3
4 -3 11 0 14 8 8 34 -3 34 -14z m510 -23 c0 -23 -22 -36 -42 -25 -23 12 -23
35 -1 48 19 10 43 -2 43 -23z m190 18 c0 -8 -4 -12 -10 -9 -5 3 -10 10 -10 16
0 5 5 9 10 9 6 0 10 -7 10 -16z m-2806 -10 c9 -24 2 -26 -12 -4 -7 11 -8 20
-3 20 5 0 12 -7 15 -16z m496 6 c0 -5 -4 -10 -10 -10 -5 0 -10 5 -10 10 0 6 5
10 10 10 6 0 10 -4 10 -10z m1060 -6 c0 -8 -5 -12 -10 -9 -6 4 -8 11 -5 16 9
14 15 11 15 -7z m-1610 -4 c0 -5 -4 -10 -10 -10 -5 0 -10 5 -10 10 0 6 5 10
10 10 6 0 10 -4 10 -10z m358 -13 c2 -10 -3 -17 -11 -17 -16 0 -30 24 -19 34
10 10 27 1 30 -17z m1972 13 c0 -5 -7 -10 -15 -10 -8 0 -15 5 -15 10 0 6 7 10
15 10 8 0 15 -4 15 -10z m470 0 c0 -5 -4 -10 -10 -10 -5 0 -10 5 -10 10 0 6 5
10 10 10 6 0 10 -4 10 -10z m-2765 -9 c3 -5 2 -12 -3 -15 -5 -3 -9 1 -9 9 0
17 3 19 12 6z m184 0 c9 -6 11 -18 6 -40 -6 -26 -4 -31 12 -31 22 0 57 -23 59
-39 1 -6 2 -18 3 -27 1 -11 7 -14 17 -10 14 5 15 4 4 -9 -14 -17 -35 -21 -25
-5 3 6 1 10 -4 10 -15 0 -14 -16 3 -32 19 -20 30 -58 16 -58 -6 0 -8 5 -5 10
3 6 1 10 -4 10 -15 0 -14 -27 2 -33 7 -3 6 -6 -5 -6 -9 -1 -20 8 -23 20 -4 11
-9 18 -13 15 -3 -3 1 -18 9 -33 10 -20 11 -27 2 -30 -7 -2 -9 -11 -6 -19 3
-10 0 -12 -10 -9 -15 6 -52 -23 -42 -33 3 -4 10 0 15 8 5 8 12 11 16 7 5 -4
-2 -17 -14 -29 -12 -13 -22 -17 -22 -10 0 7 -4 12 -9 12 -5 0 -7 -9 -4 -19 3
-12 -4 -29 -16 -42 -12 -13 -21 -27 -21 -31 0 -5 -9 -4 -21 2 -11 7 -23 9 -27
6 -3 -3 0 -6 6 -6 7 0 12 -7 12 -16 0 -8 -4 -12 -10 -9 -5 3 -10 0 -10 -8 0
-7 -7 -14 -15 -14 -8 0 -12 4 -9 9 3 4 -3 11 -12 15 -10 4 -19 2 -22 -5 -2 -7
-10 -12 -18 -12 -8 0 -14 -4 -14 -9 0 -11 -60 6 -75 22 -7 7 -6 8 3 3 7 -4 15
-1 18 8 3 9 10 13 15 10 5 -3 9 0 9 5 0 6 9 11 20 11 11 0 20 5 20 10 0 9 -15
14 -34 11 -4 -1 -14 3 -20 9 -7 5 -16 7 -19 3 -4 -3 -7 7 -6 23 0 25 2 26 9 9
8 -18 9 -18 9 -2 1 30 -32 67 -51 56 -11 -6 -19 -5 -23 1 -3 5 -3 10 2 10 10
0 30 61 39 120 5 30 4 41 -4 36 -6 -3 -14 -1 -18 5 -4 8 -3 9 4 5 22 -14 12
21 -11 37 -12 9 -16 16 -9 16 7 1 30 -17 51 -38 29 -30 40 -49 43 -80 2 -23 0
-41 -4 -41 -5 0 -8 -7 -8 -16 0 -8 -7 -22 -15 -30 -20 -21 -19 -31 4 -37 14
-3 18 -1 14 9 -3 8 0 14 6 14 6 0 11 7 11 17 0 9 3 13 7 10 7 -8 32 23 33 41
0 7 -4 10 -10 7 -5 -3 -10 1 -10 10 0 10 5 13 11 9 8 -5 10 1 5 19 -4 17 -1
29 7 34 21 12 30 72 13 79 -8 3 -17 12 -20 20 -3 9 -1 12 4 9 6 -4 15 7 21 24
13 37 22 39 37 9 l11 -23 1 25 c2 25 2 25 15 -5 8 -16 14 -24 15 -17 0 19 20
14 20 -5 0 -10 8 -27 17 -38 15 -19 15 -19 9 8 -4 18 -3 26 3 22 6 -3 13 6 17
21 4 17 2 29 -7 35 -8 5 -9 9 -4 9 6 0 16 -4 24 -9z m1481 -21 c-13 -8 -13
-10 2 -10 24 0 31 -16 13 -33 -8 -9 -15 -21 -15 -27 0 -19 -32 -6 -41 16 -8
23 20 64 44 64 7 0 6 -4 -3 -10z m-120 -10 c0 -5 -4 -10 -10 -10 -5 0 -10 5
-10 10 0 6 5 10 10 10 6 0 10 -4 10 -10z m-1725 -10 c3 -5 1 -10 -4 -10 -6 0
-11 5 -11 10 0 6 2 10 4 10 3 0 8 -4 11 -10z m2709 -30 c-6 -6 -15 -6 -24 0
-13 9 -13 11 0 20 18 11 39 -5 24 -20z m-2664 0 c0 -5 -7 -10 -15 -10 -8 0
-15 5 -15 10 0 6 7 10 15 10 8 0 15 -4 15 -10z m2607 -42 c-3 -8 -6 -5 -6 6
-1 11 2 17 5 13 3 -3 4 -12 1 -19z m-597 -13 c0 -14 0 -28 1 -32 0 -4 -4 -9
-10 -11 -13 -4 -34 45 -25 59 11 19 34 9 34 -16z m220 16 c0 -6 -4 -13 -10
-16 -5 -3 -10 1 -10 9 0 9 5 16 10 16 6 0 10 -4 10 -9z m-323 -73 c-3 -8 -6
-5 -6 6 -1 11 2 17 5 13 3 -3 4 -12 1 -19z m691 1 c-2 -6 -8 -10 -13 -10 -5 0
-11 4 -13 10 -2 6 4 11 13 11 9 0 15 -5 13 -11z m-2578 -41 c0 -21 -38 -58
-59 -58 -14 1 -13 3 2 14 21 16 22 30 2 22 -8 -3 -15 -1 -15 5 0 6 10 9 23 7
18 -2 23 2 25 26 3 22 6 26 13 15 5 -8 9 -22 9 -31z m2408 19 c2 -10 -3 -17
-12 -17 -18 0 -29 16 -21 31 9 14 29 6 33 -14z m-2448 -7 c0 -5 -5 -10 -11
-10 -5 0 -7 5 -4 10 3 6 8 10 11 10 2 0 4 -4 4 -10z m1886 -17 c-10 -10 -19 5
-10 18 6 11 8 11 12 0 2 -7 1 -15 -2 -18z m-61 -32 c7 -12 -12 -24 -25 -16
-11 7 -4 25 10 25 5 0 11 -4 15 -9z m235 -11 c12 -8 11 -10 -7 -10 -13 0 -23
5 -23 10 0 13 11 13 30 0z m64 4 c-6 -3 -9 -17 -6 -32 4 -26 4 -26 -13 -10
-15 14 -16 20 -5 32 7 9 18 16 24 15 8 0 8 -2 0 -5z m666 -4 c0 -5 -4 -10 -10
-10 -5 0 -10 5 -10 10 0 6 5 10 10 10 6 0 10 -4 10 -10z m-2353 -6 c-3 -3 -12
-4 -19 -1 -8 3 -5 6 6 6 11 1 17 -2 13 -5z m103 -4 c0 -5 -2 -10 -4 -10 -3 0
-8 5 -11 10 -3 6 -1 10 4 10 6 0 11 -4 11 -10z m1337 4 c-3 -3 -12 -4 -19 -1
-8 3 -5 6 6 6 11 1 17 -2 13 -5z m383 -4 c0 -5 -4 -10 -10 -10 -5 0 -10 5 -10
10 0 6 5 10 10 10 6 0 10 -4 10 -10z m-1780 -10 c0 -5 -2 -10 -4 -10 -3 0 -8
5 -11 10 -3 6 -1 10 4 10 6 0 11 -4 11 -10z m1515 1 c3 -5 1 -12 -5 -16 -5 -3
-10 1 -10 9 0 18 6 21 15 7z m-1575 -16 c0 -8 -2 -15 -4 -15 -2 0 -6 7 -10 15
-3 8 -1 15 4 15 6 0 10 -7 10 -15z m1350 5 c0 -5 -2 -10 -4 -10 -3 0 -8 5 -11
10 -3 6 -1 10 4 10 6 0 11 -4 11 -10z m760 0 c0 -5 -5 -10 -11 -10 -5 0 -7 5
-4 10 3 6 8 10 11 10 2 0 4 -4 4 -10z m470 -4 c0 -8 -5 -18 -11 -22 -14 -8
-33 11 -25 25 10 16 36 13 36 -3z m-330 -6 c0 -5 -5 -10 -11 -10 -5 0 -7 5 -4
10 3 6 8 10 11 10 2 0 4 -4 4 -10z m-2810 -10 c0 -5 -4 -10 -10 -10 -5 0 -10
5 -10 10 0 6 5 10 10 10 6 0 10 -4 10 -10z m122 -30 c0 -16 1 -36 2 -42 1 -7
8 -16 16 -20 11 -5 9 -7 -7 -7 -18 -1 -23 4 -23 25 0 15 -7 32 -17 39 -18 13
-10 35 13 35 9 0 15 -11 16 -30z m1903 20 c3 -5 -1 -10 -9 -10 -9 0 -16 5 -16
10 0 6 4 10 9 10 6 0 13 -4 16 -10z m-1835 -31 c14 -24 9 -32 -14 -23 -17 7
-23 44 -6 44 5 0 14 -9 20 -21z m1950 -9 c0 -5 -8 -10 -17 -10 -13 0 -11 -5
10 -18 15 -9 27 -22 27 -28 0 -16 -27 -37 -34 -26 -8 13 -66 2 -66 -13 0 -7
-7 -15 -15 -19 -8 -3 -15 -1 -15 5 0 14 33 73 43 77 4 2 7 10 7 17 0 13 17 21
48 24 6 0 12 -3 12 -9z m80 -6 c0 -8 -5 -12 -10 -9 -6 4 -8 11 -5 16 9 14 15
11 15 -7z m160 2 c0 -3 -4 -8 -10 -11 -5 -3 -10 -1 -10 4 0 6 5 11 10 11 6 0
10 -2 10 -4z m-1750 -10 c0 -11 -19 -15 -25 -6 -3 5 1 10 9 10 9 0 16 -2 16
-4z m1347 -2 c-3 -3 -12 -4 -19 -1 -8 3 -5 6 6 6 11 1 17 -2 13 -5z m1033 -14
c0 -5 -4 -10 -10 -10 -5 0 -10 5 -10 10 0 6 5 10 10 10 6 0 10 -4 10 -10z
m-2360 -10 c0 -5 -2 -10 -4 -10 -3 0 -8 5 -11 10 -3 6 -1 10 4 10 6 0 11 -4
11 -10z m1261 -30 c10 -6 20 -5 27 2 7 7 15 8 19 4 4 -4 1 -12 -7 -17 -12 -8
-9 -10 12 -6 31 5 38 1 61 -33 9 -13 17 -19 17 -12 0 6 5 12 12 12 6 0 19 7
27 14 22 20 42 6 34 -23 -5 -18 -10 -21 -30 -16 -16 4 -22 2 -18 -5 3 -5 1
-10 -5 -10 -7 0 -9 -8 -5 -20 4 -11 2 -20 -4 -20 -6 0 -11 4 -11 9 0 5 -11 8
-25 7 -16 0 -23 -6 -20 -13 9 -25 -12 -12 -24 14 -10 21 -14 24 -21 12 -9 -14
-13 -15 -45 -18 -8 0 -15 -8 -15 -16 0 -10 -10 -15 -30 -15 -29 0 -35 -8 -31
-39 2 -7 -2 -10 -8 -6 -6 3 -11 -1 -11 -9 0 -23 -20 -30 -38 -12 -11 10 -12
16 -4 16 7 0 12 7 12 15 0 9 10 20 23 26 19 8 18 9 -9 5 -28 -4 -32 -2 -42 30
-10 33 -9 34 16 34 15 0 36 8 47 17 16 13 17 15 3 10 -20 -7 -25 8 -5 17 6 4
-3 4 -20 1 -27 -4 -33 -1 -33 13 0 29 112 52 151 32z m-1911 -51 c0 -4 -11 -2
-24 4 -13 7 -22 15 -20 19 5 8 44 -13 44 -23z m60 -1 c0 15 20 16 20 1 0 -17
-27 -39 -49 -39 -24 0 -27 20 -9 50 12 19 13 19 25 -3 7 -12 12 -16 13 -9z
m45 12 c3 -5 1 -10 -4 -10 -6 0 -11 5 -11 10 0 6 2 10 4 10 3 0 8 -4 11 -10z
m45 -35 c7 -9 20 -13 27 -11 11 4 13 0 8 -14 -5 -15 0 -23 17 -29 14 -6 17
-10 8 -12 -27 -3 -44 3 -57 19 -8 11 -12 12 -13 5 0 -8 -13 -13 -31 -13 -19 0
-28 4 -24 11 4 6 14 8 24 4 12 -5 13 -3 4 6 -6 6 -9 19 -5 28 5 14 3 14 -12
-1 -23 -24 -29 -23 -16 2 13 24 52 26 70 5z m1529 -37 c-10 -6 -7 -8 10 -6 13
2 26 -2 28 -9 6 -16 -87 -8 -102 9 -7 7 -3 9 15 5 20 -5 29 -1 39 16 10 16 16
18 19 8 2 -7 -2 -17 -9 -23z m-1405 10 c16 7 26 8 26 2 0 -6 -6 -10 -12 -10
-9 0 -8 -3 2 -9 10 -7 3 -9 -22 -7 -45 4 -65 15 -47 27 8 5 16 3 21 -3 5 -9
13 -9 32 0z m2620 5 c4 -5 12 -8 17 -8 5 0 9 -4 8 -10 0 -5 -8 -8 -17 -7 -12
3 -13 1 -5 -10 8 -10 7 -16 -3 -26 -12 -11 -16 -8 -24 14 -15 39 1 70 24 47z
m-1317 -9 c-3 -3 -12 -4 -19 -1 -8 3 -5 6 6 6 11 1 17 -2 13 -5z m627 -2 c-6
-4 -15 -15 -20 -24 -12 -22 -37 -8 -28 15 4 10 17 17 33 17 14 0 21 -4 15 -8z
m-1487 -8 c-3 -3 -12 -4 -19 -1 -8 3 -5 6 6 6 11 1 17 -2 13 -5z m1893 2 c0
-3 -4 -8 -10 -11 -5 -3 -10 -1 -10 4 0 6 5 11 10 11 6 0 10 -2 10 -4z m-1903
-32 c-3 -3 -12 -4 -19 -1 -8 3 -5 6 6 6 11 1 17 -2 13 -5z m-87 -14 c-19 -13
-30 -13 -30 0 0 6 10 10 23 10 18 0 19 -2 7 -10z m1077 4 c-3 -3 -12 -4 -19
-1 -8 3 -5 6 6 6 11 1 17 -2 13 -5z m290 -20 c-9 -9 -28 6 -21 18 4 6 10 6 17
-1 6 -6 8 -13 4 -17z m-133 -29 c-9 -14 -18 -25 -20 -25 -2 0 2 11 8 25 6 14
15 25 20 25 5 0 1 -11 -8 -25z m-1274 11 c0 -3 -4 -8 -10 -11 -5 -3 -10 -1
-10 4 0 6 5 11 10 11 6 0 10 -2 10 -4z m-520 -16 c0 -5 -7 -10 -15 -10 -8 0
-15 5 -15 10 0 6 7 10 15 10 8 0 15 -4 15 -10z m2204 -11 c-3 -5 -10 -7 -15
-3 -5 3 -7 10 -3 15 3 5 10 7 15 3 5 -3 7 -10 3 -15z m-1774 -14 c0 -8 -4 -15
-9 -15 -13 0 -22 16 -14 24 11 11 23 6 23 -9z m1430 0 c0 -8 -5 -15 -11 -15
-7 0 -17 -6 -23 -14 -12 -15 -110 -50 -101 -36 3 4 -1 11 -7 14 -7 3 -1 3 15
0 16 -4 27 -2 27 5 0 6 7 8 17 4 10 -4 14 -2 9 5 -3 6 3 13 14 17 11 3 20 13
20 21 0 8 9 14 20 14 11 0 20 -7 20 -15z m80 5 c0 -5 -4 -10 -10 -10 -5 0 -10
5 -10 10 0 6 5 10 10 10 6 0 10 -4 10 -10z m-1590 -20 c0 -13 -7 -20 -20 -20
-13 0 -20 7 -20 20 0 13 7 20 20 20 13 0 20 -7 20 -20z m1129 -21 c-16 -9 -29
-3 -29 16 0 18 34 24 38 6 2 -7 -2 -17 -9 -22z m1486 32 c3 -5 1 -12 -5 -16
-5 -3 -10 1 -10 9 0 18 6 21 15 7z m-823 -10 c3 -1 4 -10 1 -21 -7 -27 -37
-22 -41 7 -2 16 1 21 15 18 10 -2 21 -4 25 -4z m608 -1 c0 -5 -8 -10 -17 -10
-15 0 -16 2 -3 10 19 12 20 12 20 0z m-1340 -15 c-10 -12 -10 -15 3 -15 8 0
18 6 20 13 4 9 6 9 6 -1 1 -17 -28 -27 -41 -14 -11 11 -3 32 14 32 7 0 6 -6
-2 -15z m1645 -5 c-3 -5 -13 -10 -21 -10 -8 0 -14 5 -14 10 0 6 9 10 21 10 11
0 17 -4 14 -10z m-1185 -4 c0 -3 -4 -8 -10 -11 -5 -3 -10 -1 -10 4 0 6 5 11
10 11 6 0 10 -2 10 -4z m-1970 -16 c0 -5 -4 -10 -10 -10 -5 0 -10 5 -10 10 0
6 5 10 10 10 6 0 10 -4 10 -10z m70 -11 c0 -5 -4 -9 -10 -9 -5 0 -10 7 -10 16
0 8 5 12 10 9 6 -3 10 -10 10 -16z m1540 11 c0 -5 -4 -10 -10 -10 -5 0 -10 5
-10 10 0 6 5 10 10 10 6 0 10 -4 10 -10z m570 -6 c0 -8 -5 -12 -10 -9 -6 4 -8
11 -5 16 9 14 15 11 15 -7z m-1675 -3 c3 -5 1 -12 -5 -16 -5 -3 -10 1 -10 9 0
18 6 21 15 7z m-538 -23 c-3 -8 -6 -5 -6 6 -1 11 2 17 5 13 3 -3 4 -12 1 -19z
m1520 -15 c-3 -10 -5 -4 -5 12 0 17 2 24 5 18 2 -7 2 -21 0 -30z m43 27 c0 -5
-4 -10 -9 -10 -6 0 -13 5 -16 10 -3 6 1 10 9 10 9 0 16 -4 16 -10z m264 -5
c-4 -8 -7 -15 -9 -15 -2 0 -5 7 -9 15 -3 9 0 15 9 15 9 0 12 -6 9 -15z m286
-4 c0 -6 -5 -13 -12 -17 -6 -4 -8 -3 -4 4 3 5 0 13 -6 15 -8 3 -6 6 5 6 9 1
17 -3 17 -8z m-250 -22 c0 -14 -17 -10 -23 5 -4 10 -1 13 9 9 7 -3 14 -9 14
-14z m1140 11 c0 -5 -4 -10 -10 -10 -5 0 -10 5 -10 10 0 6 5 10 10 10 6 0 10
-4 10 -10z m-2925 -40 c17 0 19 -9 5 -30 -8 -13 -11 -12 -24 5 -9 11 -15 31
-15 45 0 25 0 25 9 3 5 -13 16 -23 25 -23z m-4 17 c-10 -9 -11 -8 -5 6 3 10 9
15 12 12 3 -3 0 -11 -7 -18z m1486 7 c-3 -3 -12 -4 -19 -1 -8 3 -5 6 6 6 11 1
17 -2 13 -5z m243 -4 c0 -5 -5 -10 -11 -10 -5 0 -7 5 -4 10 3 6 8 10 11 10 2
0 4 -4 4 -10z m-1783 -22 c-3 -8 -6 -5 -6 6 -1 11 2 17 5 13 3 -3 4 -12 1 -19z
m1810 0 c-3 -8 -6 -5 -6 6 -1 11 2 17 5 13 3 -3 4 -12 1 -19z m-167 8 c0 -3
-4 -8 -10 -11 -5 -3 -10 -1 -10 4 0 6 5 11 10 11 6 0 10 -2 10 -4z m210 -7 c0
-6 -7 -17 -16 -26 -11 -12 -18 -13 -27 -4 -8 8 -8 11 1 11 7 0 12 7 12 15 0 8
7 15 15 15 8 0 15 -5 15 -11z m430 -9 c0 -5 -5 -10 -11 -10 -5 0 -7 5 -4 10 3
6 8 10 11 10 2 0 4 -4 4 -10z m-335 -9 c3 -5 1 -12 -5 -16 -5 -3 -10 1 -10 9
0 18 6 21 15 7z m-1545 -11 c0 -5 -4 -10 -10 -10 -5 0 -10 5 -10 10 0 6 5 10
10 10 6 0 10 -4 10 -10z m-175 -9 c3 -5 1 -12 -5 -16 -5 -3 -10 1 -10 9 0 18
6 21 15 7z m1835 -1 c0 -5 -4 -10 -10 -10 -5 0 -10 5 -10 10 0 6 5 10 10 10 6
0 10 -4 10 -10z m720 0 c0 -5 -4 -10 -10 -10 -5 0 -10 5 -10 10 0 6 5 10 10
10 6 0 10 -4 10 -10z m200 -4 c0 -3 -4 -8 -10 -11 -5 -3 -10 -1 -10 4 0 6 5
11 10 11 6 0 10 -2 10 -4z m-2800 -10 c0 -3 -4 -8 -10 -11 -5 -3 -10 -1 -10 4
0 6 5 11 10 11 6 0 10 -2 10 -4z m1670 -12 c0 -8 -4 -12 -10 -9 -5 3 -10 10
-10 16 0 5 5 9 10 9 6 0 10 -7 10 -16z m-1130 -6 c0 -11 -12 -10 -30 2 -12 7
-10 9 8 7 12 0 22 -5 22 -9z m-680 -8 c0 -5 -2 -10 -4 -10 -3 0 -8 5 -11 10
-3 6 -1 10 4 10 6 0 11 -4 11 -10z m2150 -21 c0 -5 -7 -9 -15 -9 -15 0 -20 12
-9 23 8 8 24 -1 24 -14z m-2053 -11 c-3 -8 -6 -5 -6 6 -1 11 2 17 5 13 3 -3 4
-12 1 -19z m-92 -26 c-8 -9 -35 20 -28 31 4 6 11 3 19 -8 8 -10 12 -21 9 -23z
m37 -10 c-22 -7 -12 -20 11 -15 17 4 16 2 -7 -11 -35 -20 -40 -17 -27 18 6 14
8 34 4 43 -3 11 2 8 13 -6 12 -17 14 -26 6 -29z m475 37 c14 -14 6 -39 -12
-39 -18 0 -26 15 -19 34 7 19 16 20 31 5z m243 -54 c0 -8 -4 -15 -10 -15 -5 0
-10 7 -10 15 0 8 5 15 10 15 6 0 10 -7 10 -15z m-595 -10 c6 0 10 -7 10 -15 0
-8 -6 -15 -13 -15 -7 0 -17 -7 -22 -15 -5 -8 -12 -12 -15 -8 -3 3 2 14 12 24
13 12 14 19 5 22 -6 2 -12 8 -12 13 0 6 6 7 13 2 6 -4 17 -8 22 -8z m2745 5
c0 -5 -4 -10 -10 -10 -5 0 -10 5 -10 10 0 6 5 10 10 10 6 0 10 -4 10 -10z
m-2790 -10 c0 -5 -4 -10 -10 -10 -5 0 -10 5 -10 10 0 6 5 10 10 10 6 0 10 -4
10 -10z m400 -20 c0 -5 -5 -10 -11 -10 -5 0 -7 5 -4 10 3 6 8 10 11 10 2 0 4
-4 4 -10z m1610 -6 c0 -9 -7 -14 -17 -12 -25 5 -28 28 -4 28 12 0 21 -6 21
-16z m-1880 -14 c0 -5 -4 -10 -10 -10 -5 0 -10 5 -10 10 0 6 5 10 10 10 6 0
10 -4 10 -10z m120 -26 c0 -8 -4 -12 -10 -9 -5 3 -10 10 -10 16 0 5 5 9 10 9
6 0 10 -7 10 -16z m1940 -4 c0 -5 -2 -10 -4 -10 -3 0 -8 5 -11 10 -3 6 -1 10
4 10 6 0 11 -4 11 -10z m-1336 -21 c-3 -5 -10 -7 -15 -3 -5 3 -7 10 -3 15 3 5
10 7 15 3 5 -3 7 -10 3 -15z m1066 -12 c0 -8 -7 -14 -15 -14 -25 0 -17 17 13
26 1 1 2 -5 2 -12z m505 3 c-3 -5 -10 -10 -16 -10 -5 0 -9 5 -9 10 0 6 7 10
16 10 8 0 12 -4 9 -10z m-2235 -4 c0 -3 -4 -8 -10 -11 -5 -3 -10 -1 -10 4 0 6
5 11 10 11 6 0 10 -2 10 -4z m580 0 c0 -11 -19 -15 -25 -6 -3 5 1 10 9 10 9 0
16 -2 16 -4z m188 -19 c0 -16 -6 -23 -19 -23 -24 0 -24 15 -1 32 9 7 18 14 18
14 1 0 2 -10 2 -23z m672 4 c0 -5 -7 -11 -14 -14 -10 -4 -13 -1 -9 9 6 15 23
19 23 5z m-1630 -11 c0 -5 -2 -10 -4 -10 -3 0 -8 5 -11 10 -3 6 -1 10 4 10 6
0 11 -4 11 -10z m260 -8 c0 -12 -3 -12 -15 -2 -8 7 -15 13 -15 15 0 1 7 2 15
2 8 0 15 -7 15 -15z m180 8 c0 -5 -5 -10 -11 -10 -5 0 -7 5 -4 10 3 6 8 10 11
10 2 0 4 -4 4 -10z m470 -5 c0 -2 -9 -3 -19 -2 -11 0 -18 5 -15 9 4 6 34 0 34
-7z m-950 -16 c0 -5 -7 -9 -15 -9 -15 0 -20 12 -9 23 8 8 24 -1 24 -14z m1970
-8 c0 -11 -6 -18 -15 -17 -23 3 -31 16 -15 26 22 14 30 12 30 -9z m120 9 c0
-5 -4 -10 -10 -10 -5 0 -10 5 -10 10 0 6 5 10 10 10 6 0 10 -4 10 -10z m320
-6 c0 -8 -5 -12 -10 -9 -6 4 -8 11 -5 16 9 14 15 11 15 -7z m-1590 -4 c0 -5
-4 -10 -10 -10 -5 0 -10 5 -10 10 0 6 5 10 10 10 6 0 10 -4 10 -10z m1035 0
c3 -5 1 -10 -4 -10 -6 0 -11 5 -11 10 0 6 2 10 4 10 3 0 8 -4 11 -10z m1095
-5 c0 -8 -7 -15 -15 -15 -8 0 -15 7 -15 15 0 8 7 15 15 15 8 0 15 -7 15 -15z
m-2000 -5 c0 -5 -2 -10 -4 -10 -3 0 -8 5 -11 10 -3 6 -1 10 4 10 6 0 11 -4 11
-10z m-1050 -20 c0 -5 -5 -10 -11 -10 -5 0 -7 5 -4 10 3 6 8 10 11 10 2 0 4
-4 4 -10z m1820 -25 c6 4 7 -2 1 -17 -4 -13 -11 -22 -15 -20 -3 1 -10 2 -15 2
-5 0 -7 10 -4 23 5 22 5 22 -11 2 -17 -20 -17 -20 -13 2 4 16 1 20 -12 16 -12
-3 -11 0 4 12 19 15 21 15 37 -5 10 -12 22 -19 28 -15z m40 14 c0 -5 -4 -9
-10 -9 -5 0 -10 7 -10 16 0 8 5 12 10 9 6 -3 10 -10 10 -16z m90 11 c9 -6 17
-5 23 3 6 9 8 8 5 -2 -2 -7 -20 -19 -40 -26 -33 -11 -37 -10 -41 6 -7 26 25
37 53 19z m727 -12 c-3 -8 -6 -5 -6 6 -1 11 2 17 5 13 3 -3 4 -12 1 -19z
m-2617 -8 c0 -5 -4 -10 -10 -10 -5 0 -10 5 -10 10 0 6 5 10 10 10 6 0 10 -4
10 -10z m648 -12 c-5 -15 -23 -11 -26 6 -2 11 2 14 13 10 9 -4 14 -11 13 -16z
m502 18 c0 -2 -7 -7 -16 -10 -8 -3 -12 -2 -9 4 6 10 25 14 25 6z m1491 -29
c-8 -8 -11 -7 -11 4 0 20 13 34 18 19 3 -7 -1 -17 -7 -23z m-2546 13 c3 -5 1
-10 -4 -10 -6 0 -11 5 -11 10 0 6 2 10 4 10 3 0 8 -4 11 -10z m2060 0 c3 -5 1
-10 -4 -10 -6 0 -11 5 -11 10 0 6 2 10 4 10 3 0 8 -4 11 -10z m-1775 -10 c0
-5 -2 -10 -4 -10 -3 0 -8 5 -11 10 -3 6 -1 10 4 10 6 0 11 -4 11 -10z m1640
-7 c0 -17 -8 -16 -26 1 -12 13 -12 15 6 13 11 -1 20 -7 20 -14z m260 7 c0 -5
-4 -10 -10 -10 -5 0 -10 5 -10 10 0 6 5 10 10 10 6 0 10 -4 10 -10z m-953 -24
c-7 -14 -20 -27 -31 -30 -10 -2 -16 -9 -13 -13 8 -13 -10 -39 -20 -29 -4 5 -3
11 4 13 7 2 9 11 6 19 -4 10 2 17 16 21 11 3 21 11 21 18 0 7 6 16 13 18 6 3
13 6 14 6 0 1 -4 -10 -10 -23z m-377 -16 c3 -4 12 -9 20 -12 8 -3 -6 -5 -32
-5 -49 -1 -71 12 -47 28 14 9 50 2 59 -11z m1240 -4 c0 -8 5 -16 11 -18 6 -2
9 -13 6 -23 -5 -19 -5 -19 -12 3 -4 12 -13 22 -21 22 -8 0 -11 6 -8 15 8 19
24 20 24 1z m570 4 c0 -5 -4 -10 -10 -10 -5 0 -10 5 -10 10 0 6 5 10 10 10 6
0 10 -4 10 -10z m50 -5 c0 -8 -7 -15 -15 -15 -8 0 -15 7 -15 15 0 8 7 15 15
15 8 0 15 -7 15 -15z m-2089 -11 c12 -14 11 -16 -5 -13 -11 2 -21 10 -24 17
-5 17 13 15 29 -4z m1659 6 c0 -5 -5 -10 -11 -10 -5 0 -7 5 -4 10 3 6 8 10 11
10 2 0 4 -4 4 -10z m-990 -10 c0 -5 -2 -10 -4 -10 -3 0 -8 5 -11 10 -3 6 -1
10 4 10 6 0 11 -4 11 -10z m-609 -30 c6 0 7 5 4 10 -3 6 1 10 9 10 8 0 18 -4
21 -10 3 -5 15 -10 25 -10 24 0 37 -20 20 -30 -10 -6 -7 -11 9 -21 11 -8 21
-17 21 -22 0 -4 -4 -5 -10 -2 -5 3 -10 1 -10 -5 0 -6 10 -8 28 -4 24 7 26 6
13 -9 -10 -13 -11 -20 -2 -30 8 -11 4 -22 -19 -47 -18 -20 -30 -28 -30 -19 0
22 -27 55 -36 46 -5 -4 -2 -12 6 -17 20 -12 9 -20 -19 -13 -17 4 -19 8 -9 14
11 7 10 10 -1 21 -10 9 -12 10 -7 1 5 -9 2 -11 -8 -7 -10 4 -16 1 -16 -7 0 -7
-3 -9 -7 -6 -3 4 -11 -1 -18 -10 -8 -10 -19 -14 -30 -10 -14 6 -15 10 -5 22 7
8 16 12 21 9 5 -3 22 4 38 15 15 11 32 17 36 13 5 -4 5 -1 1 6 -5 9 -12 9 -27
2 -20 -11 -28 3 -9 15 8 5 7 11 -1 21 -14 17 -42 19 -36 2 2 -7 10 -12 17 -10
11 2 11 0 0 -13 -12 -15 -14 -15 -23 0 -5 9 -6 23 -3 30 3 8 1 17 -4 20 -17
10 -11 25 7 18 13 -5 15 -2 10 11 -9 23 14 50 26 30 4 -8 13 -14 18 -14z m369
15 c0 -8 -4 -15 -10 -15 -5 0 -7 7 -4 15 4 8 8 15 10 15 2 0 4 -7 4 -15z
m1130 5 c0 -5 -7 -10 -15 -10 -8 0 -15 5 -15 10 0 6 7 10 15 10 8 0 15 -4 15
-10z m-1660 -20 c0 -5 -4 -10 -10 -10 -5 0 -10 5 -10 10 0 6 5 10 10 10 6 0
10 -4 10 -10z m2330 0 c0 -5 -4 -10 -10 -10 -5 0 -10 5 -10 10 0 6 5 10 10 10
6 0 10 -4 10 -10z m-1030 -20 c0 -5 -5 -10 -11 -10 -5 0 -7 5 -4 10 3 6 8 10
11 10 2 0 4 -4 4 -10z m-1730 -15 c0 -9 -6 -12 -16 -8 -13 5 -13 7 -2 14 17
11 18 11 18 -6z m1321 -12 c8 -16 20 -32 26 -36 18 -11 16 -30 -1 -24 -8 3
-16 1 -18 -5 -3 -7 -10 -8 -17 -4 -8 6 -9 11 -1 21 7 9 6 16 -4 24 -8 6 -16
21 -19 31 -8 30 17 24 34 -7z m1209 1 c0 -8 -5 -12 -10 -9 -6 4 -8 11 -5 16 9
14 15 11 15 -7z m-30 2 c0 -11 -19 -15 -25 -6 -3 5 1 10 9 10 9 0 16 -2 16 -4z
m140 -6 c0 -5 -5 -10 -11 -10 -5 0 -7 5 -4 10 3 6 8 10 11 10 2 0 4 -4 4 -10z
m-880 -14 c0 -3 -4 -8 -10 -11 -5 -3 -10 -1 -10 4 0 6 5 11 10 11 6 0 10 -2
10 -4z m1130 0 c0 -3 -4 -8 -10 -11 -5 -3 -10 -1 -10 4 0 6 5 11 10 11 6 0 10
-2 10 -4z m-1932 -25 c23 -14 10 -46 -21 -49 -31 -4 -46 20 -27 43 14 17 29
19 48 6z m127 -11 c3 -5 -1 -10 -10 -10 -9 0 -13 5 -10 10 3 6 8 10 10 10 2 0
7 -4 10 -10z m-955 -21 c0 -5 -4 -9 -10 -9 -5 0 -10 7 -10 16 0 8 5 12 10 9 6
-3 10 -10 10 -16z m1810 1 c0 -5 -4 -10 -10 -10 -5 0 -10 5 -10 10 0 6 5 10
10 10 6 0 10 -4 10 -10z m320 0 c0 -5 -4 -10 -10 -10 -5 0 -10 5 -10 10 0 6 5
10 10 10 6 0 10 -4 10 -10z m-843 -32 c-3 -8 -6 -5 -6 6 -1 11 2 17 5 13 3 -3
4 -12 1 -19z m168 13 c3 -5 1 -12 -5 -16 -6 -4 -7 -11 -4 -17 4 -6 -2 -6 -15
1 -11 7 -21 15 -21 20 0 20 34 29 45 12z m435 -11 c0 -5 -4 -10 -10 -10 -5 0
-10 5 -10 10 0 6 5 10 10 10 6 0 10 -4 10 -10z m-1970 -10 c0 -5 -5 -10 -11
-10 -5 0 -7 5 -4 10 3 6 8 10 11 10 2 0 4 -4 4 -10z m2501 -1 c11 -5 17 -14
14 -20 -9 -14 -19 -11 -33 11 -14 23 -10 25 19 9z m209 1 c0 -5 -4 -10 -9 -10
-6 0 -13 5 -16 10 -3 6 1 10 9 10 9 0 16 -4 16 -10z m-85 -29 c-3 -6 -11 -11
-16 -11 -5 0 -4 6 3 14 14 16 24 13 13 -3z m-2555 -6 c0 -8 -4 -15 -10 -15 -5
0 -10 7 -10 15 0 8 5 15 10 15 6 0 10 -7 10 -15z m645 5 c3 -5 1 -10 -4 -10
-6 0 -11 5 -11 10 0 6 2 10 4 10 3 0 8 -4 11 -10z m753 -2 c7 -7 12 -19 12
-27 0 -14 -1 -14 -10 -1 -8 13 -10 12 -10 -4 0 -27 -13 -12 -16 19 -3 27 5 32
24 13z m156 -9 c-3 -5 -10 -7 -15 -3 -5 3 -7 10 -3 15 3 5 10 7 15 3 5 -3 7
-10 3 -15z m521 11 c3 -5 1 -10 -4 -10 -6 0 -11 5 -11 10 0 6 2 10 4 10 3 0 8
-4 11 -10z m759 -30 c-6 -5 -24 21 -24 34 0 6 6 1 14 -10 8 -10 12 -21 10 -24z
m-2444 10 c0 -5 -4 -10 -10 -10 -5 0 -10 5 -10 10 0 6 5 10 10 10 6 0 10 -4
10 -10z m725 0 c3 -5 1 -10 -4 -10 -6 0 -11 5 -11 10 0 6 2 10 4 10 3 0 8 -4
11 -10z m495 0 c0 -5 -7 -10 -16 -10 -8 0 -12 5 -9 10 3 6 10 10 16 10 5 0 9
-4 9 -10z m994 -5 c-4 -8 -10 -12 -15 -9 -11 6 -2 24 11 24 5 0 7 -7 4 -15z
m-2284 -5 c0 -5 -4 -10 -10 -10 -5 0 -10 5 -10 10 0 6 5 10 10 10 6 0 10 -4
10 -10z m1570 0 c0 -5 -5 -10 -11 -10 -5 0 -7 5 -4 10 3 6 8 10 11 10 2 0 4
-4 4 -10z m-690 -4 c0 -3 -4 -8 -10 -11 -5 -3 -10 -1 -10 4 0 6 5 11 10 11 6
0 10 -2 10 -4z m-255 -16 c3 -5 1 -10 -4 -10 -6 0 -11 5 -11 10 0 6 2 10 4 10
3 0 8 -4 11 -10z m279 -5 c-4 -8 -8 -15 -10 -15 -2 0 -4 7 -4 15 0 8 4 15 10
15 5 0 7 -7 4 -15z m-774 1 c0 -11 -19 -15 -25 -6 -3 5 1 10 9 10 9 0 16 -2
16 -4z m1753 -11 c-3 -9 -8 -14 -10 -11 -3 3 -2 9 2 15 9 16 15 13 8 -4z
m-2213 -4 c0 -12 -20 -25 -27 -18 -7 7 6 27 18 27 5 0 9 -4 9 -9z m410 -6 c0
-16 -35 -21 -44 -6 -8 12 4 21 26 21 10 0 18 -7 18 -15z m740 5 c0 -5 -4 -10
-10 -10 -5 0 -10 5 -10 10 0 6 5 10 10 10 6 0 10 -4 10 -10z m41 -15 c7 0 14
-7 16 -15 4 -11 2 -12 -4 -2 -7 10 -13 8 -27 -7 -10 -11 -25 -17 -34 -14 -10
4 -13 2 -8 -5 10 -17 -3 -15 -21 4 -14 13 -14 17 -2 24 8 6 18 5 23 0 14 -14
36 8 29 28 -4 15 -3 15 6 2 6 -8 16 -15 22 -15z m78 10 c5 2 16 -2 26 -9 17
-12 17 -13 -1 -11 -32 4 -54 17 -47 28 5 8 8 7 11 -1 2 -7 7 -10 11 -7z m-413
-22 c-10 -10 -19 5 -10 18 6 11 8 11 12 0 2 -7 1 -15 -2 -18z m829 18 c3 -5 1
-12 -5 -16 -5 -3 -10 1 -10 9 0 18 6 21 15 7z m275 5 c0 -3 -4 -8 -10 -11 -5
-3 -10 -1 -10 4 0 6 5 11 10 11 6 0 10 -2 10 -4z m-2080 -16 c0 -5 -4 -10 -10
-10 -5 0 -10 5 -10 10 0 6 5 10 10 10 6 0 10 -4 10 -10z m1147 -20 c1 -11 -2
-22 -8 -25 -5 -4 -9 -11 -9 -16 0 -6 4 -8 9 -4 5 3 12 1 16 -4 10 -17 33 -1
28 20 -9 31 30 23 50 -11 16 -27 16 -31 3 -36 -9 -3 -13 -10 -10 -15 3 -5 10
-7 15 -4 5 4 9 0 10 -7 0 -7 4 -4 9 7 6 14 9 15 10 5 1 -8 3 -26 6 -40 3 -17
1 -21 -5 -11 -5 7 -14 10 -20 7 -6 -4 -11 0 -12 11 0 16 -1 16 -9 -2 -8 -19
-9 -19 -9 3 -1 12 -3 22 -5 22 -2 0 -12 3 -21 7 -14 5 -16 2 -10 -18 5 -18 4
-20 -4 -9 -6 8 -8 24 -4 35 5 17 4 18 -11 6 -13 -11 -19 -11 -31 -1 -8 7 -15
19 -15 27 0 8 -6 13 -12 10 -7 -2 -12 -10 -10 -16 3 -15 -7 -14 -24 3 -12 13
-11 16 8 23 13 4 30 8 38 8 9 0 14 9 13 23 -2 12 1 22 5 22 4 0 8 -9 9 -20z
m381 4 c5 3 12 -1 16 -9 3 -10 -1 -15 -13 -15 -11 0 -21 -6 -24 -12 -3 -7 -5
2 -4 20 0 18 3 28 7 21 4 -6 12 -9 18 -5z m722 6 c0 -5 -7 -10 -15 -10 -8 0
-15 5 -15 10 0 6 7 10 15 10 8 0 15 -4 15 -10z m-1217 -20 c3 -11 1 -20 -4
-20 -5 0 -9 2 -9 4 0 2 -3 11 -6 20 -3 9 -2 16 4 16 5 0 12 -9 15 -20z m-57
-6 c8 3 11 0 7 -10 -6 -16 -29 -19 -38 -4 -3 6 -12 10 -18 10 -7 0 -4 -5 6
-11 20 -12 23 -29 4 -29 -15 0 -40 38 -32 50 3 6 16 5 32 -1 15 -5 32 -8 39
-5z m384 6 c0 -5 -4 -10 -10 -10 -5 0 -10 5 -10 10 0 6 5 10 10 10 6 0 10 -4
10 -10z m797 -12 c-3 -8 -6 -5 -6 6 -1 11 2 17 5 13 3 -3 4 -12 1 -19z m-1557
2 c0 -5 -7 -10 -15 -10 -8 0 -15 5 -15 10 0 6 7 10 15 10 8 0 15 -4 15 -10z
m299 -38 c1 -10 -4 -10 -21 -1 -14 8 -18 14 -10 17 6 2 12 11 13 20 0 14 2 13
9 -3 5 -11 9 -26 9 -33z m706 38 c3 -5 1 -10 -4 -10 -6 0 -11 5 -11 10 0 6 2
10 4 10 3 0 8 -4 11 -10z m145 0 c0 -5 -5 -10 -11 -10 -5 0 -7 5 -4 10 3 6 8
10 11 10 2 0 4 -4 4 -10z m-1500 -9 c0 -14 -18 -23 -30 -16 -6 4 -8 11 -5 16
8 12 35 12 35 0z m-260 -10 c0 -6 -4 -13 -10 -16 -5 -3 -10 1 -10 9 0 9 5 16
10 16 6 0 10 -4 10 -9z m1039 -7 c7 5 9 1 5 -9 -4 -9 -11 -14 -18 -12 -18 6
-36 -20 -37 -55 0 -18 -3 -26 -6 -18 -4 8 -12 21 -20 28 -7 7 -12 21 -12 30 1
15 2 15 6 0 2 -10 9 -18 14 -18 5 0 7 10 4 23 -5 18 -1 26 17 34 15 7 25 7 29
0 4 -5 12 -7 18 -3z m892 -11 c-12 -20 -14 -14 -5 12 4 9 9 14 11 11 3 -2 0
-13 -6 -23z m599 -4 c0 -11 -7 -19 -15 -19 -8 0 -15 7 -15 15 0 8 -5 15 -11
15 -5 0 -8 4 -5 9 10 16 46 0 46 -20z m39 10 c-15 -9 -32 -2 -24 11 3 5 13 6
21 3 12 -4 13 -8 3 -14z m-1019 -10 c0 -5 -7 -9 -15 -9 -9 0 -12 6 -9 15 6 15
24 11 24 -6z m150 10 c0 -7 8 -18 18 -25 9 -7 12 -14 5 -14 -6 0 -15 5 -18 10
-10 16 -25 12 -25 -7 0 -14 -2 -15 -12 -4 -10 11 -10 14 0 18 6 3 12 11 12 19
0 8 5 14 10 14 6 0 10 -5 10 -11z m-80 -9 c0 -5 -4 -10 -10 -10 -5 0 -10 5
-10 10 0 6 5 10 10 10 6 0 10 -4 10 -10z m337 -22 c-3 -8 -6 -5 -6 6 -1 11 2
17 5 13 3 -3 4 -12 1 -19z m-1393 -3 c8 -21 -3 -45 -20 -45 -17 0 -17 -5 -4
-31 14 -24 4 -44 -15 -29 -9 7 -16 6 -25 -5 -11 -13 -10 -14 4 -9 9 3 23 1 31
-6 12 -10 15 -10 16 1 0 8 4 5 9 -6 13 -30 12 -45 -4 -45 -8 0 -16 -6 -19 -14
-4 -9 -14 -12 -26 -9 -12 3 -27 0 -34 -6 -11 -8 -13 -5 -9 19 3 18 0 30 -7 30
-6 0 -12 -8 -12 -17 -1 -10 -5 0 -9 22 -9 44 -4 58 10 35 6 -8 10 -10 10 -4 0
18 -27 37 -32 23 -3 -8 -9 -9 -18 -4 -11 7 -11 10 1 19 8 6 14 20 14 30 0 14
8 20 29 21 17 0 36 10 45 23 18 25 56 29 65 7z m1206 -2 c0 -7 -4 -13 -9 -13
-5 0 -11 6 -14 13 -3 8 1 14 9 14 8 0 14 -6 14 -14z m988 -8 c-3 -3 -9 2 -12
12 -6 14 -5 15 5 6 7 -7 10 -15 7 -18z m-2518 5 c13 -8 13 -10 -2 -10 -9 0
-20 5 -23 10 -8 13 5 13 25 0z m170 -5 c0 -8 -2 -15 -4 -15 -2 0 -6 7 -10 15
-3 8 -1 15 4 15 6 0 10 -7 10 -15z m1410 5 c0 -5 -7 -10 -15 -10 -8 0 -15 5
-15 10 0 6 7 10 15 10 8 0 15 -4 15 -10z m370 0 c0 -5 -4 -10 -10 -10 -5 0
-10 5 -10 10 0 6 5 10 10 10 6 0 10 -4 10 -10z m60 0 c0 -5 -2 -10 -4 -10 -3
0 -8 5 -11 10 -3 6 -1 10 4 10 6 0 11 -4 11 -10z m-1660 -30 c0 -5 -4 -10 -10
-10 -5 0 -10 5 -10 10 0 6 5 10 10 10 6 0 10 -4 10 -10z m2000 -8 c0 -13 -12
-22 -22 -16 -10 6 -1 24 13 24 5 0 9 -4 9 -8z m-2635 -12 c3 -5 1 -10 -4 -10
-6 0 -11 5 -11 10 0 6 2 10 4 10 3 0 8 -4 11 -10z m1380 -10 c3 -11 11 -20 17
-20 5 0 7 -7 4 -15 -3 -9 1 -18 9 -21 22 -9 18 -24 -6 -24 -11 0 -17 5 -14 10
3 6 1 10 -4 10 -6 0 -11 -5 -11 -11 0 -5 -4 -7 -10 -4 -5 3 -10 15 -10 25 0
10 -6 20 -12 23 -10 3 -10 7 -1 19 7 8 10 18 6 21 -3 4 1 7 10 7 8 0 19 -9 22
-20z m539 -7 c13 -18 15 -28 7 -36 -18 -18 -14 -47 7 -40 15 6 15 5 -2 -12
-14 -14 -21 -16 -24 -7 -5 17 -32 15 -32 -3 0 -8 -6 -15 -14 -15 -7 0 -19 7
-26 15 -17 20 -30 19 -31 -2 -1 -17 -2 -17 -6 0 -2 9 -9 14 -15 11 -6 -4 -8 1
-4 14 4 11 2 23 -4 27 -5 3 -10 1 -10 -4 0 -6 -4 -11 -10 -11 -21 0 -9 20 15
26 14 3 25 12 25 20 0 7 6 11 13 8 8 -3 20 2 27 10 7 9 16 13 21 10 5 -3 9 -1
9 3 0 19 36 10 54 -14z m96 17 c0 -5 -2 -10 -4 -10 -3 0 -8 5 -11 10 -3 6 -1
10 4 10 6 0 11 -4 11 -10z m560 -10 c0 -5 -2 -10 -4 -10 -3 0 -8 5 -11 10 -3
6 -1 10 4 10 6 0 11 -4 11 -10z m-1418 -28 c-12 -8 -22 -21 -22 -28 0 -8 -4
-14 -10 -14 -17 0 -11 19 13 44 12 13 26 21 31 18 5 -3 0 -12 -12 -20z m153
18 c3 -5 1 -10 -4 -10 -6 0 -11 5 -11 10 0 6 2 10 4 10 3 0 8 -4 11 -10z m440
0 c3 -5 1 -10 -4 -10 -6 0 -11 5 -11 10 0 6 2 10 4 10 3 0 8 -4 11 -10z
m-1137 -25 c-3 -3 -9 2 -12 12 -6 14 -5 15 5 6 7 -7 10 -15 7 -18z m29 -27
c-3 -8 -6 -5 -6 6 -1 11 2 17 5 13 3 -3 4 -12 1 -19z m1863 6 c0 -9 -5 -14
-12 -12 -18 6 -21 28 -4 28 9 0 16 -7 16 -16z m-2260 -4 c0 -5 -2 -10 -4 -10
-3 0 -8 5 -11 10 -3 6 -1 10 4 10 6 0 11 -4 11 -10z m2410 -5 c0 -8 -2 -15 -4
-15 -2 0 -6 7 -10 15 -3 8 -1 15 4 15 6 0 10 -7 10 -15z m-1100 -5 c0 -5 -4
-10 -10 -10 -5 0 -10 5 -10 10 0 6 5 10 10 10 6 0 10 -4 10 -10z m-1340 -4 c0
-3 -4 -8 -10 -11 -5 -3 -10 -1 -10 4 0 6 5 11 10 11 6 0 10 -2 10 -4z m1805
-6 c3 -5 1 -10 -4 -10 -6 0 -11 5 -11 10 0 6 2 10 4 10 3 0 8 -4 11 -10z
m-1655 -4 c0 -3 -4 -8 -10 -11 -5 -3 -10 -1 -10 4 0 6 5 11 10 11 6 0 10 -2
10 -4z m570 0 c0 -3 -4 -8 -10 -11 -5 -3 -10 -1 -10 4 0 6 5 11 10 11 6 0 10
-2 10 -4z m375 -6 c3 -5 2 -10 -4 -10 -5 0 -13 5 -16 10 -3 6 -2 10 4 10 5 0
13 -4 16 -10z m-535 -4 c0 -3 -4 -8 -10 -11 -5 -3 -10 -1 -10 4 0 6 5 11 10
11 6 0 10 -2 10 -4z m1363 -2 c8 -8 -3 -34 -14 -34 -5 0 -9 9 -9 20 0 19 11
26 23 14z m-1183 -13 c0 -5 -7 -12 -16 -15 -14 -5 -13 -9 7 -27 13 -11 18 -17
10 -13 -7 3 -17 1 -22 -7 -4 -7 -11 -10 -16 -6 -4 5 -1 12 7 17 14 9 7 14 -12
11 -12 -2 -9 7 9 29 18 21 33 26 33 11z m120 -1 c0 -5 -4 -10 -10 -10 -5 0
-10 5 -10 10 0 6 5 10 10 10 6 0 10 -4 10 -10z m220 -4 c0 -3 -4 -8 -10 -11
-5 -3 -10 -1 -10 4 0 6 5 11 10 11 6 0 10 -2 10 -4z m-420 -20 c0 -3 -4 -8
-10 -11 -5 -3 -10 -1 -10 4 0 6 5 11 10 11 6 0 10 -2 10 -4z m210 0 c0 -3 -4
-8 -10 -11 -5 -3 -10 -1 -10 4 0 6 5 11 10 11 6 0 10 -2 10 -4z m-354 -16 c9
0 13 -4 10 -9 -10 -15 -56 -10 -56 6 0 10 6 13 16 9 9 -3 22 -6 30 -6z m654 0
c0 -5 -4 -10 -10 -10 -5 0 -10 5 -10 10 0 6 5 10 10 10 6 0 10 -4 10 -10z
m465 0 c3 -5 1 -10 -4 -10 -6 0 -11 5 -11 10 0 6 2 10 4 10 3 0 8 -4 11 -10z
m-1295 -15 c0 -8 -4 -15 -10 -15 -5 0 -10 7 -10 15 0 8 5 15 10 15 6 0 10 -7
10 -15z m1780 5 c0 -5 -4 -10 -10 -10 -5 0 -10 5 -10 10 0 6 5 10 10 10 6 0
10 -4 10 -10z m-680 -10 c0 -5 -4 -10 -10 -10 -5 0 -10 5 -10 10 0 6 5 10 10
10 6 0 10 -4 10 -10z m870 -6 c0 -8 -5 -12 -10 -9 -6 4 -8 11 -5 16 9 14 15
11 15 -7z m-765 -4 c3 -5 -3 -10 -14 -10 -12 0 -21 5 -21 10 0 6 6 10 14 10 8
0 18 -4 21 -10z m1045 0 c0 -5 -4 -10 -10 -10 -5 0 -10 5 -10 10 0 6 5 10 10
10 6 0 10 -4 10 -10z m-2340 -20 c0 -5 -4 -10 -10 -10 -5 0 -10 5 -10 10 0 6
5 10 10 10 6 0 10 -4 10 -10z m340 -11 c0 -5 -7 -9 -15 -9 -15 0 -20 12 -9 23
8 8 24 -1 24 -14z m777 -1 c-3 -8 -6 -5 -6 6 -1 11 2 17 5 13 3 -3 4 -12 1
-19z m783 -3 c0 -7 -7 -15 -15 -19 -15 -5 -22 24 -9 37 9 9 24 -2 24 -18z
m-1824 -22 c-10 -10 -19 5 -10 18 6 11 8 11 12 0 2 -7 1 -15 -2 -18z m844 17
c0 -5 -4 -10 -10 -10 -5 0 -10 5 -10 10 0 6 5 10 10 10 6 0 10 -4 10 -10z
m-660 -4 c0 -3 -4 -8 -10 -11 -5 -3 -10 -1 -10 4 0 6 5 11 10 11 6 0 10 -2 10
-4z m-755 -16 c3 -5 1 -10 -4 -10 -6 0 -11 5 -11 10 0 6 2 10 4 10 3 0 8 -4
11 -10z m445 -10 c0 -11 -4 -20 -9 -20 -14 0 -23 18 -16 30 10 17 25 11 25
-10z m840 10 c0 -5 -4 -10 -10 -10 -5 0 -10 5 -10 10 0 6 5 10 10 10 6 0 10
-4 10 -10z"/>
<path d="M1880 2441 c0 -5 9 -11 21 -14 16 -4 18 -3 8 9 -13 16 -29 19 -29 5z"/>
<path d="M1058 2413 c7 -3 16 -2 19 1 4 3 -2 6 -13 5 -11 0 -14 -3 -6 -6z"/>
<path d="M1117 2403 c-4 -3 -7 -11 -7 -17 0 -6 5 -5 12 2 6 6 9 14 7 17 -3 3
-9 2 -12 -2z"/>
<path d="M1075 2370 c-3 -5 -2 -10 4 -10 5 0 13 5 16 10 3 6 2 10 -4 10 -5 0
-13 -4 -16 -10z"/>
<path d="M1170 2370 c0 -5 5 -10 10 -10 6 0 10 5 10 10 0 6 -4 10 -10 10 -5 0
-10 -4 -10 -10z"/>
<path d="M1130 2310 c0 -5 5 -10 11 -10 5 0 7 5 4 10 -3 6 -8 10 -11 10 -2 0
-4 -4 -4 -10z"/>
<path d="M2332 2280 c7 -10 14 -18 15 -16 6 6 -9 36 -18 36 -5 0 -4 -9 3 -20z"/>
<path d="M1632 2308 c6 -18 25 -20 31 -3 5 10 0 15 -14 15 -12 0 -19 -5 -17
-12z"/>
<path d="M1997 2253 c-4 -3 -7 -11 -7 -17 0 -6 5 -5 12 2 6 6 9 14 7 17 -3 3
-9 2 -12 -2z"/>
<path d="M1599 2230 c-13 -13 -14 -21 -6 -29 18 -18 24 -13 24 19 0 17 -1 30
-1 29 -1 0 -8 -9 -17 -19z"/>
<path d="M1465 2210 c-3 -5 -4 -14 0 -19 3 -5 1 -12 -5 -16 -5 -3 -10 -11 -10
-17 0 -6 9 -3 20 7 11 10 20 24 20 32 0 8 5 11 12 7 7 -4 8 -3 4 4 -9 15 -33
16 -41 2z"/>
<path d="M1411 2164 c0 -11 3 -14 6 -6 3 7 2 16 -1 19 -3 4 -6 -2 -5 -13z"/>
<path d="M1683 2123 c21 -5 22 -12 3 -27 -8 -6 -17 -22 -21 -36 -7 -22 -6 -23
8 -12 9 8 13 20 10 28 -3 8 1 14 11 14 9 0 16 8 16 20 0 14 -6 20 -22 19 -17
-1 -19 -2 -5 -6z"/>
<path d="M1205 2109 c-4 -6 -5 -12 -2 -15 2 -3 7 2 10 11 7 17 1 20 -8 4z"/>
<path d="M1727 2113 c-3 -5 -1 -17 4 -28 7 -17 8 -17 8 8 1 27 -4 34 -12 20z"/>
<path d="M1513 2093 c-4 -10 -15 -26 -26 -35 -11 -10 -16 -18 -10 -18 15 0 53
39 53 55 0 20 -9 19 -17 -2z"/>
<path d="M2030 2100 c0 -5 5 -10 10 -10 6 0 10 5 10 10 0 6 -4 10 -10 10 -5 0
-10 -4 -10 -10z"/>
<path d="M1750 2089 c0 -5 5 -7 10 -4 6 3 10 8 10 11 0 2 -4 4 -10 4 -5 0 -10
-5 -10 -11z"/>
<path d="M1460 2074 c0 -14 3 -14 15 -4 8 7 15 14 15 16 0 2 -7 4 -15 4 -8 0
-15 -7 -15 -16z"/>
<path d="M2068 2083 c7 -3 16 -2 19 1 4 3 -2 6 -13 5 -11 0 -14 -3 -6 -6z"/>
<path d="M1400 2049 c0 -5 5 -7 10 -4 6 3 10 8 10 11 0 2 -4 4 -10 4 -5 0 -10
-5 -10 -11z"/>
<path d="M1433 2039 c-2 -23 3 -25 10 -4 4 8 3 16 -1 19 -4 3 -9 -4 -9 -15z"/>
<path d="M1305 2040 c3 -5 8 -10 11 -10 2 0 4 5 4 10 0 6 -5 10 -11 10 -5 0
-7 -4 -4 -10z"/>
<path d="M1620 2000 c0 -5 5 -10 10 -10 6 0 10 5 10 10 0 6 -4 10 -10 10 -5 0
-10 -4 -10 -10z"/>
<path d="M797 1979 c7 -7 15 -10 18 -7 3 3 -2 9 -12 12 -14 6 -15 5 -6 -5z"/>
<path d="M1790 1980 c0 -5 5 -10 10 -10 6 0 10 5 10 10 0 6 -4 10 -10 10 -5 0
-10 -4 -10 -10z"/>
<path d="M1900 1921 c0 -6 5 -13 10 -16 6 -3 10 1 10 9 0 9 -4 16 -10 16 -5 0
-10 -4 -10 -9z"/>
<path d="M1196 1888 c3 -5 10 -6 15 -3 13 9 11 12 -6 12 -8 0 -12 -4 -9 -9z"/>
<path d="M1200 1865 c-23 -13 -23 -14 -4 -15 11 0 29 7 40 15 26 19 -1 20 -36
0z"/>
<path d="M1865 1870 c-3 -5 -1 -10 4 -10 6 0 11 5 11 10 0 6 -2 10 -4 10 -3 0
-8 -4 -11 -10z"/>
<path d="M1925 1847 c-3 -12 1 -36 9 -52 14 -27 16 -28 16 -7 0 12 -5 22 -11
22 -6 0 -8 7 -5 15 3 8 9 22 12 30 3 8 1 15 -5 15 -6 0 -13 -10 -16 -23z"/>
<path d="M1890 1850 c-8 -5 -12 -11 -9 -14 3 -3 14 1 25 9 21 16 8 20 -16 5z"/>
<path d="M1880 1810 c-9 -6 -10 -10 -3 -10 6 0 15 5 18 10 8 12 4 12 -15 0z"/>
<path d="M1967 1790 c-8 -23 -15 -70 -10 -70 2 0 11 7 20 15 11 12 12 22 5 43
-7 19 -11 23 -15 12z"/>
<path d="M810 1729 c-12 -9 -12 -10 4 -5 11 4 23 1 28 -6 7 -10 9 -10 6 1 -6
20 -20 23 -38 10z"/>
<path d="M1681 1714 c0 -11 3 -14 6 -6 3 7 2 16 -1 19 -3 4 -6 -2 -5 -13z"/>
<path d="M1931 1684 c0 -11 3 -14 6 -6 3 7 2 16 -1 19 -3 4 -6 -2 -5 -13z"/>
<path d="M854 1648 c-1 -18 1 -24 3 -14 4 15 7 16 14 5 5 -8 9 -9 9 -3 0 5 -6
18 -12 27 -11 15 -13 13 -14 -15z"/>
<path d="M1120 1671 c0 -6 4 -13 10 -16 6 -3 7 1 4 9 -7 18 -14 21 -14 7z"/>
<path d="M1780 1600 c0 -5 5 -10 10 -10 6 0 10 5 10 10 0 6 -4 10 -10 10 -5 0
-10 -4 -10 -10z"/>
<path d="M914 1505 c-11 -27 0 -36 24 -20 12 9 22 21 22 26 0 6 -7 3 -16 -5
-20 -20 -28 -20 -20 -1 3 8 3 15 0 15 -2 0 -7 -7 -10 -15z"/>
<path d="M1620 1461 c-9 -17 -7 -20 19 -19 26 1 28 3 18 19 -15 24 -24 24 -37
0z"/>
<path d="M915 1449 c-4 -6 -14 -8 -24 -4 -12 5 -13 3 -5 -5 13 -13 54 -5 54
11 0 12 -17 11 -25 -2z"/>
<path d="M1560 1428 c0 -31 11 -46 31 -41 10 3 16 9 14 14 -3 4 -13 5 -22 2
-9 -4 -14 -2 -10 3 3 6 2 16 -4 24 -7 13 -9 12 -9 -2z"/>
<path d="M1785 1399 c-4 -6 -4 -13 -1 -16 3 -4 6 -1 6 6 0 7 5 9 12 5 7 -4 8
-3 4 4 -9 15 -13 15 -21 1z"/>
<path d="M921 1361 c-7 -5 -10 -14 -7 -20 11 -17 22 -13 22 9 0 11 0 20 -1 20
0 0 -6 -4 -14 -9z"/>
<path d="M1375 1340 c-3 -5 -1 -10 4 -10 6 0 11 5 11 10 0 6 -2 10 -4 10 -3 0
-8 -4 -11 -10z"/>
<path d="M928 1293 c6 -2 18 -2 25 0 6 3 1 5 -13 5 -14 0 -19 -2 -12 -5z"/>
<path d="M1445 1281 c-5 -16 -12 -20 -26 -16 -20 7 -27 -9 -9 -20 15 -9 2 -25
-15 -18 -8 3 -15 1 -15 -5 0 -17 54 -22 69 -7 8 8 11 18 7 22 -4 4 -12 1 -17
-7 -9 -12 -10 -12 -5 3 3 10 6 21 6 23 0 2 7 4 15 4 17 0 19 9 6 29 -7 11 -10
9 -16 -8z"/>
<path d="M1240 1216 c0 -14 42 -46 60 -46 11 0 20 -4 20 -10 0 -5 11 -20 25
-34 l25 -25 -6 24 c-5 19 -2 25 10 25 10 0 13 6 9 18 -5 14 -3 15 8 5 20 -20
31 -15 17 7 -9 13 -19 18 -32 14 -15 -5 -18 -3 -12 12 6 17 6 17 -11 2 -10 -9
-31 -19 -48 -23 -29 -6 -29 -6 -11 9 19 16 19 16 -1 16 -12 0 -28 3 -37 6 -9
3 -16 3 -16 0z"/>
<path d="M1060 1094 c0 -7 27 -34 33 -34 3 0 3 9 0 20 -5 17 -33 30 -33 14z"/>
<path d="M1865 1070 c-3 -5 -1 -10 4 -10 6 0 11 5 11 10 0 6 -2 10 -4 10 -3 0
-8 -4 -11 -10z"/>
<path d="M1937 1049 c3 -10 0 -19 -6 -19 -6 0 -11 -4 -11 -10 0 -5 8 -10 18
-10 20 0 27 46 7 54 -8 3 -11 -2 -8 -15z"/>
<path d="M1135 1029 c-11 -17 1 -21 15 -4 8 9 8 15 2 15 -6 0 -14 -5 -17 -11z"/>
<path d="M1901 1024 c0 -11 3 -14 6 -6 3 7 2 16 -1 19 -3 4 -6 -2 -5 -13z"/>
<path d="M1566 1007 c3 -10 9 -15 12 -12 3 3 0 11 -7 18 -10 9 -11 8 -5 -6z"/>
<path d="M1335 970 c-3 -6 1 -7 9 -4 18 7 21 14 7 14 -6 0 -13 -4 -16 -10z"/>
<path d="M1604 949 c-2 -4 7 -9 21 -11 16 -4 25 -1 25 8 0 13 -38 15 -46 3z"/>
<path d="M1580 905 c-8 -9 -8 -15 -2 -15 12 0 26 19 19 26 -2 2 -10 -2 -17
-11z"/>
<path d="M1631 904 c0 -11 3 -14 6 -6 3 7 2 16 -1 19 -3 4 -6 -2 -5 -13z"/>
<path d="M1510 860 c0 -5 5 -10 10 -10 6 0 10 5 10 10 0 6 -4 10 -10 10 -5 0
-10 -4 -10 -10z"/>
<path d="M1635 840 c3 -5 8 -10 11 -10 2 0 4 5 4 10 0 6 -5 10 -11 10 -5 0 -7
-4 -4 -10z"/>
<path d="M460 2020 c0 -5 5 -10 11 -10 5 0 7 5 4 10 -3 6 -8 10 -11 10 -2 0
-4 -4 -4 -10z"/>
<path d="M516 1967 c3 -10 9 -15 12 -12 3 3 0 11 -7 18 -10 9 -11 8 -5 -6z"/>
<path d="M594 1959 c-3 -6 3 -21 15 -32 17 -18 21 -19 21 -5 0 9 -7 19 -16 22
-8 3 -12 10 -9 16 3 5 4 10 1 10 -3 0 -8 -5 -12 -11z"/>
<path d="M620 1962 c0 -4 5 -13 11 -19 6 -6 12 -25 13 -42 2 -30 2 -30 -18
-13 -20 17 -20 17 -5 -7 8 -13 23 -25 31 -27 14 -2 15 2 5 24 -9 20 -9 26 1
30 9 3 8 7 -3 18 -8 8 -12 21 -9 29 4 9 0 15 -10 15 -9 0 -16 -4 -16 -8z"/>
<path d="M480 1920 c0 -5 7 -7 15 -4 8 4 15 8 15 10 0 2 -7 4 -15 4 -8 0 -15
-4 -15 -10z"/>
<path d="M612 1820 c0 -14 2 -19 5 -12 2 6 2 18 0 25 -3 6 -5 1 -5 -13z"/>
<path d="M370 1679 c0 -5 5 -7 10 -4 6 3 10 8 10 11 0 2 -4 4 -10 4 -5 0 -10
-5 -10 -11z"/>
<path d="M2067 2004 c-4 -4 -7 -14 -7 -23 0 -11 3 -12 11 -4 6 6 10 16 7 23
-2 6 -7 8 -11 4z"/>
<path d="M2210 1640 c0 -6 12 -15 26 -20 33 -13 34 -13 34 6 0 10 -6 14 -15
11 -8 -4 -17 -2 -20 3 -8 13 -25 13 -25 0z"/>
<path d="M1997 1493 c-4 -3 -7 -11 -7 -17 0 -6 5 -5 12 2 6 6 9 14 7 17 -3 3
-9 2 -12 -2z"/>
<path d="M151 1544 c0 -11 3 -14 6 -6 3 7 2 16 -1 19 -3 4 -6 -2 -5 -13z"/>
<path d="M1475 380 c-3 -5 -1 -10 4 -10 6 0 11 5 11 10 0 6 -2 10 -4 10 -3 0
-8 -4 -11 -10z"/>
<path d="M830 190 c0 -5 5 -10 10 -10 6 0 10 5 10 10 0 6 -4 10 -10 10 -5 0
-10 -4 -10 -10z"/>
<path d="M2115 250 c-3 -5 -1 -10 4 -10 6 0 11 5 11 10 0 6 -2 10 -4 10 -3 0
-8 -4 -11 -10z"/>
</g>
</svg>
